<svg width="917" height="124" viewBox="0 0 917 124" fill="none" xmlns="http://www.w3.org/2000/svg">
<mask id="path-1-outside-1_460_466" maskUnits="userSpaceOnUse" x="2" y="21" width="915" height="83" fill="black">
<rect fill="white" x="2" y="21" width="915" height="83"/>
<path d="M3.6 75.4H27.2C27.4667 77.1333 28.3 78.6667 29.7 80C31.1667 81.2667 33.1333 82.2667 35.6 83C38.0667 83.6667 40.9667 84 44.3 84C48.9 84 52.4667 83.4667 55 82.4C57.6 81.3333 58.9 79.7 58.9 77.5C58.9 75.9667 58.1667 74.7333 56.7 73.8C55.2333 72.8 52.3333 72.1333 48 71.8L34.8 70.7C24 69.9 16.1667 67.5667 11.3 63.7C6.5 59.7667 4.1 54.5 4.1 47.9C4.1 42.5 5.66667 38 8.8 34.4C11.9333 30.7333 16.3 27.9667 21.9 26.1C27.5 24.2333 34.1 23.3 41.7 23.3C49.0333 23.3 55.5333 24.3333 61.2 26.4C66.9333 28.4667 71.4667 31.4 74.8 35.2C78.2 38.9333 80.0667 43.3 80.4 48.3H56.8C56.5333 46.8333 55.7667 45.5667 54.5 44.5C53.3 43.3667 51.5667 42.5 49.3 41.9C47.0333 41.3 44.3333 41 41.2 41C37.0667 41 33.7667 41.5 31.3 42.5C28.9 43.5 27.7 45 27.7 47C27.7 48.4667 28.4 49.6667 29.8 50.6C31.2667 51.5333 33.9333 52.1667 37.8 52.5L52.3 53.7C59.5 54.2333 65.3 55.3667 69.7 57.1C74.1667 58.7667 77.4 61.0667 79.4 64C81.4 66.8667 82.4 70.5 82.4 74.9C82.4 80.2333 80.8 84.9333 77.6 89C74.4 93 69.9 96.1333 64.1 98.4C58.3667 100.6 51.6333 101.7 43.9 101.7C35.9667 101.7 29 100.6 23 98.4C17 96.2 12.3 93.1333 8.9 89.2C5.5 85.2 3.73333 80.6 3.6 75.4ZM134.142 25C140.676 25 146.276 26.1 150.942 28.3C155.676 30.5 159.276 33.6 161.742 37.6C164.209 41.5333 165.442 46.2 165.442 51.6C165.442 56.9333 164.209 61.6 161.742 65.6C159.276 69.6 155.676 72.7 150.942 74.9C146.276 77.1 140.676 78.2 134.142 78.2H102.042V59.8H132.642C135.576 59.8 137.842 59.0667 139.442 57.6C141.109 56.1333 141.942 54.1333 141.942 51.6C141.942 48.9333 141.109 46.9 139.442 45.5C137.842 44.1 135.576 43.4 132.642 43.4H104.042L114.542 32.8V100H91.2422V25H134.142ZM237.871 54.3V70.7H182.171V54.3H237.871ZM198.071 62.5L193.371 91.5L184.271 81.4H241.371V100H170.271L175.871 62.5L170.271 25H240.871V43.6H184.271L193.371 33.5L198.071 62.5ZM317.145 54.3V70.7H261.445V54.3H317.145ZM277.345 62.5L272.645 91.5L263.545 81.4H320.645V100H249.545L255.145 62.5L249.545 25H320.145V43.6H263.545L272.645 33.5L277.345 62.5ZM369.518 25C378.518 25 386.385 26.5667 393.118 29.7C399.918 32.7667 405.185 37.1 408.918 42.7C412.718 48.3 414.618 54.9 414.618 62.5C414.618 70.0333 412.718 76.6333 408.918 82.3C405.185 87.9 399.918 92.2667 393.118 95.4C386.385 98.4667 378.518 100 369.518 100H330.918V25H369.518ZM354.018 89.9L343.318 79.3H371.318C375.385 79.3 378.885 78.6333 381.818 77.3C384.818 75.9 387.118 73.9333 388.718 71.4C390.318 68.8667 391.118 65.9 391.118 62.5C391.118 59.0333 390.318 56.0667 388.718 53.6C387.118 51.0667 384.818 49.1333 381.818 47.8C378.885 46.4 375.385 45.7 371.318 45.7H343.318L354.018 35.1V89.9ZM439.573 57.4H465.773C468.706 57.4 470.973 56.7333 472.573 55.4C474.239 54.0667 475.073 52.1333 475.073 49.6C475.073 47.0667 474.239 45.1333 472.573 43.8C470.973 42.4667 468.706 41.8 465.773 41.8H436.273L446.773 31V100H423.473V25H469.273C475.073 25 480.173 26.0333 484.573 28.1C488.973 30.1667 492.406 33.0333 494.873 36.7C497.339 40.3667 498.573 44.6667 498.573 49.6C498.573 54.4 497.339 58.6667 494.873 62.4C492.406 66.0667 488.973 68.9333 484.573 71C480.173 73 475.073 74 469.273 74H439.573V57.4ZM449.573 64.9H475.473L501.273 100H474.573L449.573 64.9ZM550.02 101.7C541.02 101.7 533.12 100.067 526.32 96.8C519.586 93.5333 514.32 88.9667 510.52 83.1C506.786 77.2333 504.92 70.3667 504.92 62.5C504.92 54.6333 506.786 47.7667 510.52 41.9C514.32 36.0333 519.586 31.4667 526.32 28.2C533.12 24.9333 541.02 23.3 550.02 23.3C559.02 23.3 566.886 24.9333 573.62 28.2C580.42 31.4667 585.686 36.0333 589.42 41.9C593.22 47.7667 595.12 54.6333 595.12 62.5C595.12 70.3667 593.22 77.2333 589.42 83.1C585.686 88.9667 580.42 93.5333 573.62 96.8C566.886 100.067 559.02 101.7 550.02 101.7ZM550.02 81C554.486 81 558.32 80.2667 561.52 78.8C564.786 77.2667 567.286 75.1333 569.02 72.4C570.753 69.6 571.62 66.3 571.62 62.5C571.62 58.7 570.753 55.4333 569.02 52.7C567.286 49.9 564.786 47.7667 561.52 46.3C558.32 44.7667 554.486 44 550.02 44C545.553 44 541.686 44.7667 538.42 46.3C535.22 47.7667 532.753 49.9 531.02 52.7C529.286 55.4333 528.42 58.7 528.42 62.5C528.42 66.3 529.286 69.6 531.02 72.4C532.753 75.1333 535.22 77.2667 538.42 78.8C541.686 80.2667 545.553 81 550.02 81ZM627.292 25V89.7L616.792 79.3H672.692V100H603.992V25H627.292ZM703.538 25V89.7L693.038 79.3H748.938V100H680.238V25H703.538ZM821.984 54.3V70.7H766.284V54.3H821.984ZM782.184 62.5L777.484 91.5L768.384 81.4H825.484V100H754.384L759.984 62.5L754.384 25H824.984V43.6H768.384L777.484 33.5L782.184 62.5ZM851.858 57.4H878.058C880.991 57.4 883.258 56.7333 884.858 55.4C886.524 54.0667 887.358 52.1333 887.358 49.6C887.358 47.0667 886.524 45.1333 884.858 43.8C883.258 42.4667 880.991 41.8 878.058 41.8H848.558L859.058 31V100H835.758V25H881.558C887.358 25 892.458 26.0333 896.858 28.1C901.258 30.1667 904.691 33.0333 907.158 36.7C909.624 40.3667 910.858 44.6667 910.858 49.6C910.858 54.4 909.624 58.6667 907.158 62.4C904.691 66.0667 901.258 68.9333 896.858 71C892.458 73 887.358 74 881.558 74H851.858V57.4ZM861.858 64.9H887.758L913.558 100H886.858L861.858 64.9Z"/>
</mask>
<path d="M3.6 75.4H27.2C27.4667 77.1333 28.3 78.6667 29.7 80C31.1667 81.2667 33.1333 82.2667 35.6 83C38.0667 83.6667 40.9667 84 44.3 84C48.9 84 52.4667 83.4667 55 82.4C57.6 81.3333 58.9 79.7 58.9 77.5C58.9 75.9667 58.1667 74.7333 56.7 73.8C55.2333 72.8 52.3333 72.1333 48 71.8L34.8 70.7C24 69.9 16.1667 67.5667 11.3 63.7C6.5 59.7667 4.1 54.5 4.1 47.9C4.1 42.5 5.66667 38 8.8 34.4C11.9333 30.7333 16.3 27.9667 21.9 26.1C27.5 24.2333 34.1 23.3 41.7 23.3C49.0333 23.3 55.5333 24.3333 61.2 26.4C66.9333 28.4667 71.4667 31.4 74.8 35.2C78.2 38.9333 80.0667 43.3 80.4 48.3H56.8C56.5333 46.8333 55.7667 45.5667 54.5 44.5C53.3 43.3667 51.5667 42.5 49.3 41.9C47.0333 41.3 44.3333 41 41.2 41C37.0667 41 33.7667 41.5 31.3 42.5C28.9 43.5 27.7 45 27.7 47C27.7 48.4667 28.4 49.6667 29.8 50.6C31.2667 51.5333 33.9333 52.1667 37.8 52.5L52.3 53.7C59.5 54.2333 65.3 55.3667 69.7 57.1C74.1667 58.7667 77.4 61.0667 79.4 64C81.4 66.8667 82.4 70.5 82.4 74.9C82.4 80.2333 80.8 84.9333 77.6 89C74.4 93 69.9 96.1333 64.1 98.4C58.3667 100.6 51.6333 101.7 43.9 101.7C35.9667 101.7 29 100.6 23 98.4C17 96.2 12.3 93.1333 8.9 89.2C5.5 85.2 3.73333 80.6 3.6 75.4ZM134.142 25C140.676 25 146.276 26.1 150.942 28.3C155.676 30.5 159.276 33.6 161.742 37.6C164.209 41.5333 165.442 46.2 165.442 51.6C165.442 56.9333 164.209 61.6 161.742 65.6C159.276 69.6 155.676 72.7 150.942 74.9C146.276 77.1 140.676 78.2 134.142 78.2H102.042V59.8H132.642C135.576 59.8 137.842 59.0667 139.442 57.6C141.109 56.1333 141.942 54.1333 141.942 51.6C141.942 48.9333 141.109 46.9 139.442 45.5C137.842 44.1 135.576 43.4 132.642 43.4H104.042L114.542 32.8V100H91.2422V25H134.142ZM237.871 54.3V70.7H182.171V54.3H237.871ZM198.071 62.5L193.371 91.5L184.271 81.4H241.371V100H170.271L175.871 62.5L170.271 25H240.871V43.6H184.271L193.371 33.5L198.071 62.5ZM317.145 54.3V70.7H261.445V54.3H317.145ZM277.345 62.5L272.645 91.5L263.545 81.4H320.645V100H249.545L255.145 62.5L249.545 25H320.145V43.6H263.545L272.645 33.5L277.345 62.5ZM369.518 25C378.518 25 386.385 26.5667 393.118 29.7C399.918 32.7667 405.185 37.1 408.918 42.7C412.718 48.3 414.618 54.9 414.618 62.5C414.618 70.0333 412.718 76.6333 408.918 82.3C405.185 87.9 399.918 92.2667 393.118 95.4C386.385 98.4667 378.518 100 369.518 100H330.918V25H369.518ZM354.018 89.9L343.318 79.3H371.318C375.385 79.3 378.885 78.6333 381.818 77.3C384.818 75.9 387.118 73.9333 388.718 71.4C390.318 68.8667 391.118 65.9 391.118 62.5C391.118 59.0333 390.318 56.0667 388.718 53.6C387.118 51.0667 384.818 49.1333 381.818 47.8C378.885 46.4 375.385 45.7 371.318 45.7H343.318L354.018 35.1V89.9ZM439.573 57.4H465.773C468.706 57.4 470.973 56.7333 472.573 55.4C474.239 54.0667 475.073 52.1333 475.073 49.6C475.073 47.0667 474.239 45.1333 472.573 43.8C470.973 42.4667 468.706 41.8 465.773 41.8H436.273L446.773 31V100H423.473V25H469.273C475.073 25 480.173 26.0333 484.573 28.1C488.973 30.1667 492.406 33.0333 494.873 36.7C497.339 40.3667 498.573 44.6667 498.573 49.6C498.573 54.4 497.339 58.6667 494.873 62.4C492.406 66.0667 488.973 68.9333 484.573 71C480.173 73 475.073 74 469.273 74H439.573V57.4ZM449.573 64.9H475.473L501.273 100H474.573L449.573 64.9ZM550.02 101.7C541.02 101.7 533.12 100.067 526.32 96.8C519.586 93.5333 514.32 88.9667 510.52 83.1C506.786 77.2333 504.92 70.3667 504.92 62.5C504.92 54.6333 506.786 47.7667 510.52 41.9C514.32 36.0333 519.586 31.4667 526.32 28.2C533.12 24.9333 541.02 23.3 550.02 23.3C559.02 23.3 566.886 24.9333 573.62 28.2C580.42 31.4667 585.686 36.0333 589.42 41.9C593.22 47.7667 595.12 54.6333 595.12 62.5C595.12 70.3667 593.22 77.2333 589.42 83.1C585.686 88.9667 580.42 93.5333 573.62 96.8C566.886 100.067 559.02 101.7 550.02 101.7ZM550.02 81C554.486 81 558.32 80.2667 561.52 78.8C564.786 77.2667 567.286 75.1333 569.02 72.4C570.753 69.6 571.62 66.3 571.62 62.5C571.62 58.7 570.753 55.4333 569.02 52.7C567.286 49.9 564.786 47.7667 561.52 46.3C558.32 44.7667 554.486 44 550.02 44C545.553 44 541.686 44.7667 538.42 46.3C535.22 47.7667 532.753 49.9 531.02 52.7C529.286 55.4333 528.42 58.7 528.42 62.5C528.42 66.3 529.286 69.6 531.02 72.4C532.753 75.1333 535.22 77.2667 538.42 78.8C541.686 80.2667 545.553 81 550.02 81ZM627.292 25V89.7L616.792 79.3H672.692V100H603.992V25H627.292ZM703.538 25V89.7L693.038 79.3H748.938V100H680.238V25H703.538ZM821.984 54.3V70.7H766.284V54.3H821.984ZM782.184 62.5L777.484 91.5L768.384 81.4H825.484V100H754.384L759.984 62.5L754.384 25H824.984V43.6H768.384L777.484 33.5L782.184 62.5ZM851.858 57.4H878.058C880.991 57.4 883.258 56.7333 884.858 55.4C886.524 54.0667 887.358 52.1333 887.358 49.6C887.358 47.0667 886.524 45.1333 884.858 43.8C883.258 42.4667 880.991 41.8 878.058 41.8H848.558L859.058 31V100H835.758V25H881.558C887.358 25 892.458 26.0333 896.858 28.1C901.258 30.1667 904.691 33.0333 907.158 36.7C909.624 40.3667 910.858 44.6667 910.858 49.6C910.858 54.4 909.624 58.6667 907.158 62.4C904.691 66.0667 901.258 68.9333 896.858 71C892.458 73 887.358 74 881.558 74H851.858V57.4ZM861.858 64.9H887.758L913.558 100H886.858L861.858 64.9Z" fill="black" fill-opacity="0.1"/>
<path d="M3.6 75.4V73.9H2.06105L2.10049 75.4384L3.6 75.4ZM27.2 75.4L28.6826 75.1719L28.4869 73.9H27.2V75.4ZM29.7 80L28.6655 81.0862L28.6919 81.1114L28.7196 81.1352L29.7 80ZM35.6 83L35.1725 84.4378L35.1905 84.4432L35.2086 84.448L35.6 83ZM55 82.4L54.4306 81.0122L54.4179 81.0175L55 82.4ZM56.7 73.8L55.855 75.0393L55.8746 75.0527L55.8947 75.0655L56.7 73.8ZM48 71.8L47.8754 73.2948L47.885 73.2956L48 71.8ZM34.8 70.7L34.9246 69.2051L34.9108 69.2041L34.8 70.7ZM11.3 63.7L10.3493 64.8602L10.358 64.8674L10.3669 64.8744L11.3 63.7ZM8.8 34.4L9.9315 35.3848L9.94035 35.3745L8.8 34.4ZM21.9 26.1L22.3743 27.523L22.3743 27.523L21.9 26.1ZM61.2 26.4L60.6861 27.8092L60.6913 27.8111L61.2 26.4ZM74.8 35.2L73.6724 36.1892L73.6816 36.1997L73.691 36.21L74.8 35.2ZM80.4 48.3V49.8H82.0033L81.8967 48.2002L80.4 48.3ZM56.8 48.3L55.3242 48.5683L55.5481 49.8H56.8V48.3ZM54.5 44.5L53.4701 45.5905L53.5011 45.6199L53.5338 45.6474L54.5 44.5ZM49.3 41.9L49.6838 40.4499L49.6838 40.4499L49.3 41.9ZM31.3 42.5L30.7364 41.1099L30.7297 41.1126L30.7231 41.1154L31.3 42.5ZM29.8 50.6L28.968 51.8481L28.9812 51.8569L28.9947 51.8655L29.8 50.6ZM37.8 52.5L37.6712 53.9945L37.6763 53.9949L37.8 52.5ZM52.3 53.7L52.1763 55.1949L52.1892 55.1959L52.3 53.7ZM69.7 57.1L69.1502 58.4956L69.1629 58.5006L69.1756 58.5054L69.7 57.1ZM79.4 64L78.1607 64.845L78.1652 64.8517L78.1698 64.8583L79.4 64ZM77.6 89L78.7713 89.9371L78.7788 89.9276L77.6 89ZM64.1 98.4L64.6374 99.8005L64.646 99.7971L64.1 98.4ZM23 98.4L22.4836 99.8083L22.4836 99.8083L23 98.4ZM8.9 89.2L7.75705 90.1715L7.7652 90.1809L8.9 89.2ZM3.6 75.4V76.9H27.2V75.4V73.9H3.6V75.4ZM27.2 75.4L25.7174 75.6281C26.0397 77.723 27.0515 79.549 28.6655 81.0862L29.7 80L30.7345 78.9138C29.5485 77.7843 28.8936 76.5437 28.6826 75.1719L27.2 75.4ZM29.7 80L28.7196 81.1352C30.3906 82.5784 32.5657 83.6628 35.1725 84.4378L35.6 83L36.0275 81.5622C33.701 80.8705 31.9427 79.9549 30.6804 78.8648L29.7 80ZM35.6 83L35.2086 84.448C37.8348 85.1578 40.8722 85.5 44.3 85.5V84V82.5C41.0611 82.5 38.2985 82.1755 35.9914 81.552L35.6 83ZM44.3 84V85.5C48.9832 85.5 52.781 84.9619 55.5821 83.7825L55 82.4L54.4179 81.0175C52.1524 81.9715 48.8168 82.5 44.3 82.5V84ZM55 82.4L55.5693 83.7878C57.0274 83.1896 58.2435 82.3836 59.0986 81.3091C59.9719 80.212 60.4 78.9197 60.4 77.5H58.9H57.4C57.4 78.2803 57.1781 78.9047 56.7514 79.4409C56.3065 79.9998 55.5726 80.5438 54.4307 81.0122L55 82.4ZM58.9 77.5H60.4C60.4 75.3778 59.3364 73.6997 57.5053 72.5345L56.7 73.8L55.8947 75.0655C56.997 75.7669 57.4 76.5555 57.4 77.5H58.9ZM56.7 73.8L57.545 72.5607C56.5875 71.9078 55.2868 71.4389 53.7611 71.0881C52.2136 70.7324 50.3255 70.4745 48.115 70.3044L48 71.8L47.885 73.2956C50.0078 73.4589 51.7365 73.701 53.0889 74.0119C54.4632 74.3278 55.3459 74.6922 55.855 75.0393L56.7 73.8ZM48 71.8L48.1246 70.3052L34.9246 69.2052L34.8 70.7L34.6754 72.1948L47.8754 73.2948L48 71.8ZM34.8 70.7L34.9108 69.2041C24.2142 68.4118 16.7464 66.1115 12.2331 62.5256L11.3 63.7L10.3669 64.8744C15.5869 69.0219 23.7858 71.3882 34.6892 72.1959L34.8 70.7ZM11.3 63.7L12.2507 62.5398C7.82298 58.9115 5.6 54.0832 5.6 47.9H4.1H2.6C2.6 54.9168 5.17703 60.6219 10.3493 64.8602L11.3 63.7ZM4.1 47.9H5.6C5.6 42.8112 7.06712 38.6757 9.93146 35.3848L8.8 34.4L7.66854 33.4152C4.26621 37.3243 2.6 42.1888 2.6 47.9H4.1ZM8.8 34.4L9.94035 35.3745C12.8608 31.957 16.9752 29.3227 22.3743 27.523L21.9 26.1L21.4257 24.677C15.6248 26.6106 11.0059 29.5097 7.65965 33.4255L8.8 34.4ZM21.9 26.1L22.3743 27.523C27.7847 25.7196 34.2173 24.8 41.7 24.8V23.3V21.8C33.9827 21.8 27.2153 22.7471 21.4257 24.677L21.9 26.1ZM41.7 23.3V24.8C48.8947 24.8 55.2153 25.814 60.6861 27.8092L61.2 26.4L61.7139 24.9908C55.8514 22.8527 49.172 21.8 41.7 21.8V23.3ZM61.2 26.4L60.6913 27.8111C66.2349 29.8094 70.5376 32.6155 73.6724 36.1892L74.8 35.2L75.9276 34.2108C72.3958 30.1845 67.6318 27.124 61.7087 24.9889L61.2 26.4ZM74.8 35.2L73.691 36.21C76.8645 39.6946 78.5927 43.7411 78.9033 48.3998L80.4 48.3L81.8967 48.2002C81.5406 42.8589 79.5355 38.1721 75.909 34.19L74.8 35.2ZM80.4 48.3V46.8H56.8V48.3V49.8H80.4V48.3ZM56.8 48.3L58.2758 48.0317C57.9397 46.1831 56.9683 44.6175 55.4662 43.3526L54.5 44.5L53.5338 45.6474C54.565 46.5158 55.127 47.4835 55.3242 48.5683L56.8 48.3ZM54.5 44.5L55.5299 43.4095C54.0875 42.0472 52.0968 41.0887 49.6838 40.4499L49.3 41.9L48.9162 43.3501C51.0365 43.9113 52.5125 44.6862 53.4701 45.5905L54.5 44.5ZM49.3 41.9L49.6838 40.4499C47.258 39.8078 44.4224 39.5 41.2 39.5V41V42.5C44.2443 42.5 46.8086 42.7922 48.9162 43.3501L49.3 41.9ZM41.2 41V39.5C36.9688 39.5 33.4532 40.0085 30.7364 41.1099L31.3 42.5L31.8636 43.8901C34.0801 42.9915 37.1646 42.5 41.2 42.5V41ZM31.3 42.5L30.7231 41.1154C29.3692 41.6795 28.2319 42.4339 27.4287 43.438C26.6067 44.4655 26.2 45.6745 26.2 47H27.7H29.2C29.2 46.3255 29.3934 45.7845 29.7713 45.312C30.1681 44.8161 30.8308 44.3205 31.8769 43.8846L31.3 42.5ZM27.7 47H26.2C26.2 49.0485 27.2222 50.6843 28.968 51.8481L29.8 50.6L30.6321 49.3519C29.5778 48.6491 29.2 47.8848 29.2 47H27.7ZM29.8 50.6L28.9947 51.8655C30.796 53.0118 33.7911 53.66 37.6712 53.9945L37.8 52.5L37.9288 51.0055C34.0756 50.6734 31.7373 50.0549 30.6053 49.3345L29.8 50.6ZM37.8 52.5L37.6763 53.9949L52.1763 55.1949L52.3 53.7L52.4237 52.2051L37.9237 51.0051L37.8 52.5ZM52.3 53.7L52.1892 55.1959C59.3091 55.7233 64.944 56.8386 69.1502 58.4956L69.7 57.1L70.2498 55.7044C65.656 53.8947 59.6909 52.7434 52.4108 52.2041L52.3 53.7ZM69.7 57.1L69.1756 58.5054C73.4498 60.1002 76.3862 62.2425 78.1607 64.845L79.4 64L80.6393 63.155C78.4138 59.8908 74.8836 57.4331 70.2244 55.6946L69.7 57.1ZM79.4 64L78.1698 64.8583C79.9535 67.4148 80.9 70.7272 80.9 74.9H82.4H83.9C83.9 70.2728 82.8465 66.3185 80.6302 63.1417L79.4 64ZM82.4 74.9H80.9C80.9 79.908 79.4063 84.2788 76.4212 88.0724L77.6 89L78.7788 89.9276C82.1937 85.5879 83.9 80.5587 83.9 74.9H82.4ZM77.6 89L76.4287 88.063C73.4252 91.8173 69.1615 94.8115 63.554 97.0029L64.1 98.4L64.646 99.7971C70.6385 97.4552 75.3748 94.1827 78.7713 89.937L77.6 89ZM64.1 98.4L63.5626 96.9996C58.0389 99.1191 51.4953 100.2 43.9 100.2V101.7V103.2C51.7713 103.2 58.6945 102.081 64.6374 99.8004L64.1 98.4ZM43.9 101.7V100.2C36.1019 100.2 29.3165 99.1184 23.5164 96.9917L23 98.4L22.4836 99.8083C28.6835 102.082 35.8314 103.2 43.9 103.2V101.7ZM23 98.4L23.5164 96.9917C17.7012 94.8595 13.2342 91.9203 10.0348 88.2191L8.9 89.2L7.7652 90.1809C11.3658 94.3463 16.2988 97.5405 22.4836 99.8083L23 98.4ZM8.9 89.2L10.0429 88.2285C6.86264 84.487 5.22397 80.2155 5.09951 75.3616L3.6 75.4L2.10049 75.4384C2.2427 80.9845 4.13736 85.913 7.75709 90.1715L8.9 89.2ZM150.942 28.3L150.303 29.6568L150.31 29.6603L150.942 28.3ZM161.742 37.6L160.465 38.3874L160.471 38.3969L161.742 37.6ZM150.942 74.9L150.31 73.5397L150.303 73.5432L150.942 74.9ZM102.042 78.2H100.542V79.7H102.042V78.2ZM102.042 59.8V58.3H100.542V59.8H102.042ZM139.442 57.6L138.451 56.4739L138.44 56.484L138.429 56.4943L139.442 57.6ZM139.442 45.5L138.454 46.6289L138.466 46.6388L138.477 46.6486L139.442 45.5ZM104.042 43.4L102.977 42.3444L100.445 44.9H104.042V43.4ZM114.542 32.8H116.042V29.1543L113.477 31.7444L114.542 32.8ZM114.542 100V101.5H116.042V100H114.542ZM91.2422 100H89.7422V101.5H91.2422V100ZM91.2422 25V23.5H89.7422V25H91.2422ZM134.142 25V26.5C140.511 26.5 145.882 27.5727 150.303 29.6568L150.942 28.3L151.582 26.9432C146.669 24.6273 140.84 23.5 134.142 23.5V25ZM150.942 28.3L150.31 29.6603C154.808 31.7507 158.17 34.6645 160.465 38.3873L161.742 37.6L163.019 36.8127C160.381 32.5355 156.543 29.2493 151.574 26.9397L150.942 28.3ZM161.742 37.6L160.471 38.3969C162.765 42.0547 163.942 46.4351 163.942 51.6H165.442H166.942C166.942 45.9649 165.652 41.012 163.013 36.8031L161.742 37.6ZM165.442 51.6H163.942C163.942 56.6937 162.767 61.08 160.465 64.8127L161.742 65.6L163.019 66.3873C165.65 62.12 166.942 57.173 166.942 51.6H165.442ZM161.742 65.6L160.465 64.8127C158.17 68.5355 154.808 71.4493 150.31 73.5397L150.942 74.9L151.574 76.2603C156.543 73.9507 160.381 70.6645 163.019 66.3873L161.742 65.6ZM150.942 74.9L150.303 73.5432C145.882 75.6273 140.511 76.7 134.142 76.7V78.2V79.7C140.84 79.7 146.669 78.5727 151.582 76.2568L150.942 74.9ZM134.142 78.2V76.7H102.042V78.2V79.7H134.142V78.2ZM102.042 78.2H103.542V59.8H102.042H100.542V78.2H102.042ZM102.042 59.8V61.3H132.642V59.8V58.3H102.042V59.8ZM132.642 59.8V61.3C135.817 61.3 138.494 60.5039 140.456 58.7057L139.442 57.6L138.429 56.4943C137.19 57.6295 135.334 58.3 132.642 58.3V59.8ZM139.442 57.6L140.433 58.7261C142.471 56.9329 143.442 54.4969 143.442 51.6H141.942H140.442C140.442 53.7698 139.747 55.3338 138.451 56.4739L139.442 57.6ZM141.942 51.6H143.442C143.442 48.5994 142.488 46.0999 140.407 44.3514L139.442 45.5L138.477 46.6486C139.729 47.7001 140.442 49.2673 140.442 51.6H141.942ZM139.442 45.5L140.43 44.3711C138.468 42.6544 135.801 41.9 132.642 41.9V43.4V44.9C135.35 44.9 137.216 45.5456 138.454 46.6289L139.442 45.5ZM132.642 43.4V41.9H104.042V43.4V44.9H132.642V43.4ZM104.042 43.4L105.108 44.4556L115.608 33.8556L114.542 32.8L113.477 31.7444L102.977 42.3444L104.042 43.4ZM114.542 32.8H113.042V100H114.542H116.042V32.8H114.542ZM114.542 100V98.5H91.2422V100V101.5H114.542V100ZM91.2422 100H92.7422V25H91.2422H89.7422V100H91.2422ZM91.2422 25V26.5H134.142V25V23.5H91.2422V25ZM237.871 54.3H239.371V52.8H237.871V54.3ZM237.871 70.7V72.2H239.371V70.7H237.871ZM182.171 70.7H180.671V72.2H182.171V70.7ZM182.171 54.3V52.8H180.671V54.3H182.171ZM198.071 62.5L199.552 62.74L199.591 62.5L199.552 62.26L198.071 62.5ZM193.371 91.5L192.257 92.5041L194.351 94.8287L194.852 91.74L193.371 91.5ZM184.271 81.4V79.9H180.901L183.157 82.4041L184.271 81.4ZM241.371 81.4H242.871V79.9H241.371V81.4ZM241.371 100V101.5H242.871V100H241.371ZM170.271 100L168.788 99.7785L168.53 101.5H170.271V100ZM175.871 62.5L177.355 62.7215L177.388 62.5L177.355 62.2785L175.871 62.5ZM170.271 25V23.5H168.53L168.788 25.2215L170.271 25ZM240.871 25H242.371V23.5H240.871V25ZM240.871 43.6V45.1H242.371V43.6H240.871ZM184.271 43.6L183.157 42.5959L180.901 45.1H184.271V43.6ZM193.371 33.5L194.852 33.26L194.351 30.1713L192.257 32.4959L193.371 33.5ZM237.871 54.3H236.371V70.7H237.871H239.371V54.3H237.871ZM237.871 70.7V69.2H182.171V70.7V72.2H237.871V70.7ZM182.171 70.7H183.671V54.3H182.171H180.671V70.7H182.171ZM182.171 54.3V55.8H237.871V54.3V52.8H182.171V54.3ZM198.071 62.5L196.59 62.26L191.89 91.26L193.371 91.5L194.852 91.74L199.552 62.74L198.071 62.5ZM193.371 91.5L194.485 90.4959L185.385 80.3959L184.271 81.4L183.157 82.4041L192.257 92.5041L193.371 91.5ZM184.271 81.4V82.9H241.371V81.4V79.9H184.271V81.4ZM241.371 81.4H239.871V100H241.371H242.871V81.4H241.371ZM241.371 100V98.5H170.271V100V101.5H241.371V100ZM170.271 100L171.755 100.222L177.355 62.7215L175.871 62.5L174.388 62.2785L168.788 99.7785L170.271 100ZM175.871 62.5L177.355 62.2785L171.755 24.7785L170.271 25L168.788 25.2215L174.388 62.7215L175.871 62.5ZM170.271 25V26.5H240.871V25V23.5H170.271V25ZM240.871 25H239.371V43.6H240.871H242.371V25H240.871ZM240.871 43.6V42.1H184.271V43.6V45.1H240.871V43.6ZM184.271 43.6L185.385 44.6041L194.485 34.5041L193.371 33.5L192.257 32.4959L183.157 42.5959L184.271 43.6ZM193.371 33.5L191.89 33.74L196.59 62.74L198.071 62.5L199.552 62.26L194.852 33.26L193.371 33.5ZM317.145 54.3H318.645V52.8H317.145V54.3ZM317.145 70.7V72.2H318.645V70.7H317.145ZM261.445 70.7H259.945V72.2H261.445V70.7ZM261.445 54.3V52.8H259.945V54.3H261.445ZM277.345 62.5L278.825 62.74L278.864 62.5L278.825 62.26L277.345 62.5ZM272.645 91.5L271.53 92.5041L273.625 94.8287L274.125 91.74L272.645 91.5ZM263.545 81.4V79.9H260.174L262.43 82.4041L263.545 81.4ZM320.645 81.4H322.145V79.9H320.645V81.4ZM320.645 100V101.5H322.145V100H320.645ZM249.545 100L248.061 99.7785L247.804 101.5H249.545V100ZM255.145 62.5L256.628 62.7215L256.661 62.5L256.628 62.2785L255.145 62.5ZM249.545 25V23.5H247.804L248.061 25.2215L249.545 25ZM320.145 25H321.645V23.5H320.145V25ZM320.145 43.6V45.1H321.645V43.6H320.145ZM263.545 43.6L262.43 42.5959L260.174 45.1H263.545V43.6ZM272.645 33.5L274.125 33.26L273.625 30.1713L271.53 32.4959L272.645 33.5ZM317.145 54.3H315.645V70.7H317.145H318.645V54.3H317.145ZM317.145 70.7V69.2H261.445V70.7V72.2H317.145V70.7ZM261.445 70.7H262.945V54.3H261.445H259.945V70.7H261.445ZM261.445 54.3V55.8H317.145V54.3V52.8H261.445V54.3ZM277.345 62.5L275.864 62.26L271.164 91.26L272.645 91.5L274.125 91.74L278.825 62.74L277.345 62.5ZM272.645 91.5L273.759 90.4959L264.659 80.3959L263.545 81.4L262.43 82.4041L271.53 92.5041L272.645 91.5ZM263.545 81.4V82.9H320.645V81.4V79.9H263.545V81.4ZM320.645 81.4H319.145V100H320.645H322.145V81.4H320.645ZM320.645 100V98.5H249.545V100V101.5H320.645V100ZM249.545 100L251.028 100.222L256.628 62.7215L255.145 62.5L253.661 62.2785L248.061 99.7785L249.545 100ZM255.145 62.5L256.628 62.2785L251.028 24.7785L249.545 25L248.061 25.2215L253.661 62.7215L255.145 62.5ZM249.545 25V26.5H320.145V25V23.5H249.545V25ZM320.145 25H318.645V43.6H320.145H321.645V25H320.145ZM320.145 43.6V42.1H263.545V43.6V45.1H320.145V43.6ZM263.545 43.6L264.659 44.6041L273.759 34.5041L272.645 33.5L271.53 32.4959L262.43 42.5959L263.545 43.6ZM272.645 33.5L271.164 33.74L275.864 62.74L277.345 62.5L278.825 62.26L274.125 33.26L272.645 33.5ZM393.118 29.7L392.485 31.06L392.493 31.0637L392.501 31.0674L393.118 29.7ZM408.918 42.7L407.67 43.5321L407.677 43.5423L408.918 42.7ZM408.918 82.3L407.672 81.4646L407.67 81.4679L408.918 82.3ZM393.118 95.4L393.74 96.7651L393.746 96.7623L393.118 95.4ZM330.918 100H329.418V101.5H330.918V100ZM330.918 25V23.5H329.418V25H330.918ZM354.018 89.9L352.962 90.9656L355.518 93.4974V89.9H354.018ZM343.318 79.3V77.8H339.672L342.262 80.3656L343.318 79.3ZM381.818 77.3L382.439 78.6655L382.446 78.6624L382.452 78.6593L381.818 77.3ZM388.718 71.4L387.45 70.599L387.45 70.599L388.718 71.4ZM388.718 53.6L387.45 54.401L387.455 54.4087L387.46 54.4163L388.718 53.6ZM381.818 47.8L381.172 49.1537L381.19 49.1625L381.209 49.1707L381.818 47.8ZM343.318 45.7L342.262 44.6344L339.672 47.2H343.318V45.7ZM354.018 35.1H355.518V31.5026L352.962 34.0344L354.018 35.1ZM369.518 25V26.5C378.345 26.5 385.987 28.0363 392.485 31.06L393.118 29.7L393.751 28.34C386.782 25.097 378.691 23.5 369.518 23.5V25ZM393.118 29.7L392.501 31.0674C399.073 34.0313 404.109 38.1911 407.67 43.532L408.918 42.7L410.166 41.8679C406.26 36.0089 400.762 31.502 393.735 28.3326L393.118 29.7ZM408.918 42.7L407.677 43.5423C411.288 48.8638 413.118 55.162 413.118 62.5H414.618H416.118C416.118 54.638 414.148 47.7362 410.159 41.8577L408.918 42.7ZM414.618 62.5H413.118C413.118 69.7681 411.289 76.0705 407.672 81.4646L408.918 82.3L410.164 83.1354C414.147 77.1962 416.118 70.2986 416.118 62.5H414.618ZM408.918 82.3L407.67 81.4679C404.107 86.8119 399.068 91.0069 392.49 94.0377L393.118 95.4L393.746 96.7623C400.768 93.5264 406.262 88.9881 410.166 83.1321L408.918 82.3ZM393.118 95.4L392.496 94.0349C385.996 96.9956 378.349 98.5 369.518 98.5V100V101.5C378.687 101.5 386.774 99.9378 393.74 96.7651L393.118 95.4ZM369.518 100V98.5H330.918V100V101.5H369.518V100ZM330.918 100H332.418V25H330.918H329.418V100H330.918ZM330.918 25V26.5H369.518V25V23.5H330.918V25ZM354.018 89.9L355.074 88.8344L344.374 78.2344L343.318 79.3L342.262 80.3656L352.962 90.9656L354.018 89.9ZM343.318 79.3V80.8H371.318V79.3V77.8H343.318V79.3ZM371.318 79.3V80.8C375.544 80.8 379.266 80.1075 382.439 78.6655L381.818 77.3L381.197 75.9344C378.503 77.1592 375.225 77.8 371.318 77.8V79.3ZM381.818 77.3L382.452 78.6593C385.684 77.151 388.217 75.0024 389.986 72.201L388.718 71.4L387.45 70.599C386.019 72.8642 383.952 74.649 381.184 75.9407L381.818 77.3ZM388.718 71.4L389.986 72.201C391.757 69.3968 392.618 66.1443 392.618 62.5H391.118H389.618C389.618 65.6557 388.879 68.3365 387.45 70.599L388.718 71.4ZM391.118 62.5H392.618C392.618 58.7964 391.761 55.5342 389.976 52.7837L388.718 53.6L387.46 54.4163C388.875 56.5991 389.618 59.2703 389.618 62.5H391.118ZM388.718 53.6L389.986 52.799C388.213 49.9908 385.671 47.8711 382.427 46.4293L381.818 47.8L381.209 49.1707C383.965 50.3955 386.023 52.1425 387.45 54.401L388.718 53.6ZM381.818 47.8L382.464 46.4463C379.285 44.9289 375.554 44.2 371.318 44.2V45.7V47.2C375.216 47.2 378.484 47.8711 381.172 49.1537L381.818 47.8ZM371.318 45.7V44.2H343.318V45.7V47.2H371.318V45.7ZM343.318 45.7L344.374 46.7656L355.074 36.1656L354.018 35.1L352.962 34.0344L342.262 44.6344L343.318 45.7ZM354.018 35.1H352.518V89.9H354.018H355.518V35.1H354.018ZM439.573 57.4V55.9H438.073V57.4H439.573ZM472.573 55.4L471.636 54.2287L471.624 54.2381L471.612 54.2477L472.573 55.4ZM472.573 43.8L471.612 44.9523L471.624 44.9619L471.636 44.9713L472.573 43.8ZM436.273 41.8L435.197 40.7544L432.722 43.3H436.273V41.8ZM446.773 31H448.273V27.3053L445.697 29.9544L446.773 31ZM446.773 100V101.5H448.273V100H446.773ZM423.473 100H421.973V101.5H423.473V100ZM423.473 25V23.5H421.973V25H423.473ZM484.573 28.1L485.21 26.7423L485.21 26.7423L484.573 28.1ZM494.873 36.7L496.117 35.8627L494.873 36.7ZM494.873 62.4L496.117 63.2373L496.124 63.2269L494.873 62.4ZM484.573 71L485.193 72.3655L485.202 72.3617L485.21 72.3577L484.573 71ZM439.573 74H438.073V75.5H439.573V74ZM449.573 64.9V63.4H446.663L448.351 65.7702L449.573 64.9ZM475.473 64.9L476.681 64.0116L476.232 63.4H475.473V64.9ZM501.273 100V101.5H504.237L502.481 99.1116L501.273 100ZM474.573 100L473.351 100.87L473.799 101.5H474.573V100ZM439.573 57.4V58.9H465.773V57.4V55.9H439.573V57.4ZM465.773 57.4V58.9C468.916 58.9 471.572 58.1867 473.533 56.5523L472.573 55.4L471.612 54.2477C470.374 55.28 468.496 55.9 465.773 55.9V57.4ZM472.573 55.4L473.51 56.5713C475.6 54.8988 476.573 52.494 476.573 49.6H475.073H473.573C473.573 51.7726 472.878 53.2345 471.636 54.2287L472.573 55.4ZM475.073 49.6H476.573C476.573 46.706 475.6 44.3012 473.51 42.6287L472.573 43.8L471.636 44.9713C472.878 45.9655 473.573 47.4274 473.573 49.6H475.073ZM472.573 43.8L473.533 42.6477C471.572 41.0133 468.916 40.3 465.773 40.3V41.8V43.3C468.496 43.3 470.374 43.92 471.612 44.9523L472.573 43.8ZM465.773 41.8V40.3H436.273V41.8V43.3H465.773V41.8ZM436.273 41.8L437.348 42.8456L447.848 32.0456L446.773 31L445.697 29.9544L435.197 40.7544L436.273 41.8ZM446.773 31H445.273V100H446.773H448.273V31H446.773ZM446.773 100V98.5H423.473V100V101.5H446.773V100ZM423.473 100H424.973V25H423.473H421.973V100H423.473ZM423.473 25V26.5H469.273V25V23.5H423.473V25ZM469.273 25V26.5C474.894 26.5 479.769 27.5011 483.935 29.4577L484.573 28.1L485.21 26.7423C480.576 24.5656 475.251 23.5 469.273 23.5V25ZM484.573 28.1L483.935 29.4577C488.115 31.4209 491.328 34.1179 493.628 37.5373L494.873 36.7L496.117 35.8627C493.484 31.9488 489.831 28.9125 485.21 26.7423L484.573 28.1ZM494.873 36.7L493.628 37.5373C495.909 40.9282 497.073 44.9289 497.073 49.6H498.573H500.073C500.073 44.4044 498.769 39.8052 496.117 35.8627L494.873 36.7ZM498.573 49.6H497.073C497.073 54.1284 495.914 58.1031 493.621 61.5731L494.873 62.4L496.124 63.2269C498.765 59.2302 500.073 54.6716 500.073 49.6H498.573ZM494.873 62.4L493.628 61.5627C491.328 64.9821 488.115 67.6791 483.935 69.6423L484.573 71L485.21 72.3577C489.831 70.1875 493.484 67.1512 496.117 63.2373L494.873 62.4ZM484.573 71L483.952 69.6344C479.782 71.5299 474.901 72.5 469.273 72.5V74V75.5C475.245 75.5 480.563 74.4701 485.193 72.3655L484.573 71ZM469.273 74V72.5H439.573V74V75.5H469.273V74ZM439.573 74H441.073V57.4H439.573H438.073V74H439.573ZM449.573 64.9V66.4H475.473V64.9V63.4H449.573V64.9ZM475.473 64.9L474.264 65.7884L500.064 100.888L501.273 100L502.481 99.1116L476.681 64.0116L475.473 64.9ZM501.273 100V98.5H474.573V100V101.5H501.273V100ZM474.573 100L475.794 99.1298L450.794 64.0298L449.573 64.9L448.351 65.7702L473.351 100.87L474.573 100ZM526.32 96.8L525.665 98.1496L525.67 98.1521L526.32 96.8ZM510.52 83.1L509.254 83.9053L509.261 83.9155L510.52 83.1ZM510.52 41.9L509.261 41.0845L509.254 41.0947L510.52 41.9ZM526.32 28.2L525.67 26.8479L525.665 26.8504L526.32 28.2ZM573.62 28.2L572.965 29.5496L572.97 29.5521L573.62 28.2ZM589.42 41.9L588.154 42.7053L588.161 42.7155L589.42 41.9ZM589.42 83.1L588.161 82.2845L588.154 82.2947L589.42 83.1ZM573.62 96.8L572.97 95.4479L572.965 95.4504L573.62 96.8ZM561.52 78.8L562.145 80.1637L562.157 80.1579L561.52 78.8ZM569.02 72.4L570.286 73.2033L570.291 73.1964L570.295 73.1895L569.02 72.4ZM569.02 52.7L567.744 53.4895L567.748 53.4964L567.753 53.5033L569.02 52.7ZM561.52 46.3L560.871 47.6527L560.888 47.6608L560.905 47.6684L561.52 46.3ZM538.42 46.3L539.045 47.6637L539.057 47.6579L538.42 46.3ZM531.02 52.7L532.286 53.5033L532.291 53.4964L532.295 53.4895L531.02 52.7ZM531.02 72.4L529.744 73.1895L529.748 73.1964L529.753 73.2033L531.02 72.4ZM538.42 78.8L537.771 80.1527L537.788 80.1608L537.805 80.1684L538.42 78.8ZM550.02 101.7V100.2C541.201 100.2 533.531 98.6002 526.969 95.4479L526.32 96.8L525.67 98.1521C532.708 101.533 540.838 103.2 550.02 103.2V101.7ZM526.32 96.8L526.974 95.4504C520.469 92.2945 515.419 87.905 511.779 82.2845L510.52 83.1L509.261 83.9155C513.22 90.0283 518.703 94.7721 525.665 98.1496L526.32 96.8ZM510.52 83.1L511.785 82.2947C508.224 76.6992 506.42 70.1199 506.42 62.5H504.92H503.42C503.42 70.6134 505.348 77.7674 509.254 83.9053L510.52 83.1ZM504.92 62.5H506.42C506.42 54.8801 508.224 48.3008 511.785 42.7053L510.52 41.9L509.254 41.0947C505.348 47.2326 503.42 54.3866 503.42 62.5H504.92ZM510.52 41.9L511.779 42.7155C515.419 37.095 520.469 32.7055 526.974 29.5496L526.32 28.2L525.665 26.8504C518.703 30.2279 513.22 34.9717 509.261 41.0845L510.52 41.9ZM526.32 28.2L526.969 29.5521C533.531 26.3998 541.201 24.8 550.02 24.8V23.3V21.8C540.838 21.8 532.708 23.4669 525.67 26.8479L526.32 28.2ZM550.02 23.3V24.8C558.838 24.8 566.473 26.3999 572.965 29.5496L573.62 28.2L574.274 26.8504C567.3 23.4667 559.201 21.8 550.02 21.8V23.3ZM573.62 28.2L572.97 29.5521C579.54 32.7082 584.584 37.0948 588.154 42.7053L589.42 41.9L590.685 41.0947C586.789 34.9719 581.299 30.2251 574.269 26.8479L573.62 28.2ZM589.42 41.9L588.161 42.7155C591.784 48.3096 593.62 54.8853 593.62 62.5H595.12H596.62C596.62 54.3814 594.655 47.2237 590.679 41.0845L589.42 41.9ZM595.12 62.5H593.62C593.62 70.1147 591.784 76.6904 588.161 82.2845L589.42 83.1L590.679 83.9155C594.655 77.7763 596.62 70.6186 596.62 62.5H595.12ZM589.42 83.1L588.154 82.2947C584.584 87.9052 579.54 92.2918 572.97 95.4479L573.62 96.8L574.269 98.1521C581.299 94.7749 586.789 90.0281 590.685 83.9053L589.42 83.1ZM573.62 96.8L572.965 95.4504C566.473 98.6 558.838 100.2 550.02 100.2V101.7V103.2C559.201 103.2 567.3 101.533 574.274 98.1496L573.62 96.8ZM550.02 81V82.5C554.646 82.5 558.703 81.7409 562.145 80.1636L561.52 78.8L560.895 77.4364C557.936 78.7924 554.327 79.5 550.02 79.5V81ZM561.52 78.8L562.157 80.1579C565.651 78.5177 568.383 76.2047 570.286 73.2033L569.02 72.4L567.753 71.5967C566.189 74.062 563.921 76.0156 560.882 77.4421L561.52 78.8ZM569.02 72.4L570.295 73.1895C572.197 70.1177 573.12 66.5352 573.12 62.5H571.62H570.12C570.12 66.0648 569.309 69.0823 567.744 71.6105L569.02 72.4ZM571.62 62.5H573.12C573.12 58.4659 572.197 54.9095 570.286 51.8967L569.02 52.7L567.753 53.5033C569.309 55.9572 570.12 58.9341 570.12 62.5H571.62ZM569.02 52.7L570.295 51.9105C568.39 48.8335 565.649 46.5097 562.134 44.9316L561.52 46.3L560.905 47.6684C563.924 49.0236 566.182 50.9665 567.744 53.4895L569.02 52.7ZM561.52 46.3L562.168 44.9473C558.72 43.2953 554.654 42.5 550.02 42.5V44V45.5C554.318 45.5 557.919 46.2381 560.871 47.6527L561.52 46.3ZM550.02 44V42.5C545.384 42.5 541.29 43.2957 537.782 44.9421L538.42 46.3L539.057 47.6579C542.083 46.2377 545.722 45.5 550.02 45.5V44ZM538.42 46.3L537.795 44.9364C534.345 46.5173 531.644 48.8416 529.744 51.9105L531.02 52.7L532.295 53.4895C533.862 50.9584 536.094 49.0161 539.045 47.6636L538.42 46.3ZM531.02 52.7L529.753 51.8967C527.842 54.9095 526.92 58.4659 526.92 62.5H528.42H529.92C529.92 58.9341 530.73 55.9572 532.286 53.5033L531.02 52.7ZM528.42 62.5H526.92C526.92 66.5352 527.843 70.1177 529.744 73.1895L531.02 72.4L532.295 71.6105C530.73 69.0823 529.92 66.0648 529.92 62.5H528.42ZM531.02 72.4L529.753 73.2033C531.651 76.1968 534.343 78.51 537.771 80.1527L538.42 78.8L539.068 77.4473C536.096 76.0233 533.855 74.0699 532.286 71.5967L531.02 72.4ZM538.42 78.8L537.805 80.1684C541.307 81.7405 545.392 82.5 550.02 82.5V81V79.5C545.714 79.5 542.066 78.7929 539.034 77.4316L538.42 78.8ZM627.292 25H628.792V23.5H627.292V25ZM627.292 89.7L626.237 90.7657L628.792 93.297V89.7H627.292ZM616.792 79.3V77.8H613.146L615.737 80.3657L616.792 79.3ZM672.692 79.3H674.192V77.8H672.692V79.3ZM672.692 100V101.5H674.192V100H672.692ZM603.992 100H602.492V101.5H603.992V100ZM603.992 25V23.5H602.492V25H603.992ZM627.292 25H625.792V89.7H627.292H628.792V25H627.292ZM627.292 89.7L628.348 88.6343L617.848 78.2343L616.792 79.3L615.737 80.3657L626.237 90.7657L627.292 89.7ZM616.792 79.3V80.8H672.692V79.3V77.8H616.792V79.3ZM672.692 79.3H671.192V100H672.692H674.192V79.3H672.692ZM672.692 100V98.5H603.992V100V101.5H672.692V100ZM603.992 100H605.492V25H603.992H602.492V100H603.992ZM603.992 25V26.5H627.292V25V23.5H603.992V25ZM703.538 25H705.038V23.5H703.538V25ZM703.538 89.7L702.483 90.7657L705.038 93.297V89.7H703.538ZM693.038 79.3V77.8H689.392L691.983 80.3657L693.038 79.3ZM748.938 79.3H750.438V77.8H748.938V79.3ZM748.938 100V101.5H750.438V100H748.938ZM680.238 100H678.738V101.5H680.238V100ZM680.238 25V23.5H678.738V25H680.238ZM703.538 25H702.038V89.7H703.538H705.038V25H703.538ZM703.538 89.7L704.594 88.6343L694.094 78.2343L693.038 79.3L691.983 80.3657L702.483 90.7657L703.538 89.7ZM693.038 79.3V80.8H748.938V79.3V77.8H693.038V79.3ZM748.938 79.3H747.438V100H748.938H750.438V79.3H748.938ZM748.938 100V98.5H680.238V100V101.5H748.938V100ZM680.238 100H681.738V25H680.238H678.738V100H680.238ZM680.238 25V26.5H703.538V25V23.5H680.238V25ZM821.984 54.3H823.484V52.8H821.984V54.3ZM821.984 70.7V72.2H823.484V70.7H821.984ZM766.284 70.7H764.784V72.2H766.284V70.7ZM766.284 54.3V52.8H764.784V54.3H766.284ZM782.184 62.5L783.665 62.74L783.704 62.5L783.665 62.26L782.184 62.5ZM777.484 91.5L776.37 92.5041L778.464 94.8287L778.965 91.74L777.484 91.5ZM768.384 81.4V79.9H765.014L767.27 82.4041L768.384 81.4ZM825.484 81.4H826.984V79.9H825.484V81.4ZM825.484 100V101.5H826.984V100H825.484ZM754.384 100L752.901 99.7785L752.644 101.5H754.384V100ZM759.984 62.5L761.468 62.7215L761.501 62.5L761.468 62.2785L759.984 62.5ZM754.384 25V23.5H752.644L752.901 25.2215L754.384 25ZM824.984 25H826.484V23.5H824.984V25ZM824.984 43.6V45.1H826.484V43.6H824.984ZM768.384 43.6L767.27 42.5959L765.014 45.1H768.384V43.6ZM777.484 33.5L778.965 33.26L778.464 30.1713L776.37 32.4959L777.484 33.5ZM821.984 54.3H820.484V70.7H821.984H823.484V54.3H821.984ZM821.984 70.7V69.2H766.284V70.7V72.2H821.984V70.7ZM766.284 70.7H767.784V54.3H766.284H764.784V70.7H766.284ZM766.284 54.3V55.8H821.984V54.3V52.8H766.284V54.3ZM782.184 62.5L780.704 62.26L776.004 91.26L777.484 91.5L778.965 91.74L783.665 62.74L782.184 62.5ZM777.484 91.5L778.599 90.4959L769.499 80.3959L768.384 81.4L767.27 82.4041L776.37 92.5041L777.484 91.5ZM768.384 81.4V82.9H825.484V81.4V79.9H768.384V81.4ZM825.484 81.4H823.984V100H825.484H826.984V81.4H825.484ZM825.484 100V98.5H754.384V100V101.5H825.484V100ZM754.384 100L755.868 100.222L761.468 62.7215L759.984 62.5L758.501 62.2785L752.901 99.7785L754.384 100ZM759.984 62.5L761.468 62.2785L755.868 24.7785L754.384 25L752.901 25.2215L758.501 62.7215L759.984 62.5ZM754.384 25V26.5H824.984V25V23.5H754.384V25ZM824.984 25H823.484V43.6H824.984H826.484V25H824.984ZM824.984 43.6V42.1H768.384V43.6V45.1H824.984V43.6ZM768.384 43.6L769.499 44.6041L778.599 34.5041L777.484 33.5L776.37 32.4959L767.27 42.5959L768.384 43.6ZM777.484 33.5L776.004 33.74L780.704 62.74L782.184 62.5L783.665 62.26L778.965 33.26L777.484 33.5ZM851.858 57.4V55.9H850.358V57.4H851.858ZM884.858 55.4L883.921 54.2287L883.909 54.2381L883.898 54.2477L884.858 55.4ZM884.858 43.8L883.898 44.9523L883.909 44.9619L883.921 44.9713L884.858 43.8ZM848.558 41.8L847.482 40.7544L845.007 43.3H848.558V41.8ZM859.058 31H860.558V27.3053L857.982 29.9544L859.058 31ZM859.058 100V101.5H860.558V100H859.058ZM835.758 100H834.258V101.5H835.758V100ZM835.758 25V23.5H834.258V25H835.758ZM896.858 28.1L897.496 26.7423L897.496 26.7423L896.858 28.1ZM907.158 36.7L908.402 35.8627L907.158 36.7ZM907.158 62.4L908.402 63.2373L908.409 63.2269L907.158 62.4ZM896.858 71L897.479 72.3655L897.487 72.3617L897.496 72.3577L896.858 71ZM851.858 74H850.358V75.5H851.858V74ZM861.858 64.9V63.4H858.948L860.636 65.7702L861.858 64.9ZM887.758 64.9L888.966 64.0116L888.517 63.4H887.758V64.9ZM913.558 100V101.5H916.522L914.766 99.1116L913.558 100ZM886.858 100L885.636 100.87L886.085 101.5H886.858V100ZM851.858 57.4V58.9H878.058V57.4V55.9H851.858V57.4ZM878.058 57.4V58.9C881.201 58.9 883.857 58.1867 885.818 56.5523L884.858 55.4L883.898 54.2477C882.659 55.28 880.782 55.9 878.058 55.9V57.4ZM884.858 55.4L885.795 56.5713C887.885 54.8988 888.858 52.494 888.858 49.6H887.358H885.858C885.858 51.7726 885.164 53.2345 883.921 54.2287L884.858 55.4ZM887.358 49.6H888.858C888.858 46.706 887.885 44.3012 885.795 42.6287L884.858 43.8L883.921 44.9713C885.164 45.9655 885.858 47.4274 885.858 49.6H887.358ZM884.858 43.8L885.818 42.6477C883.857 41.0133 881.201 40.3 878.058 40.3V41.8V43.3C880.782 43.3 882.659 43.92 883.898 44.9523L884.858 43.8ZM878.058 41.8V40.3H848.558V41.8V43.3H878.058V41.8ZM848.558 41.8L849.633 42.8456L860.133 32.0456L859.058 31L857.982 29.9544L847.482 40.7544L848.558 41.8ZM859.058 31H857.558V100H859.058H860.558V31H859.058ZM859.058 100V98.5H835.758V100V101.5H859.058V100ZM835.758 100H837.258V25H835.758H834.258V100H835.758ZM835.758 25V26.5H881.558V25V23.5H835.758V25ZM881.558 25V26.5C887.179 26.5 892.054 27.5011 896.22 29.4577L896.858 28.1L897.496 26.7423C892.861 24.5656 887.536 23.5 881.558 23.5V25ZM896.858 28.1L896.22 29.4577C900.4 31.4209 903.613 34.1179 905.913 37.5373L907.158 36.7L908.402 35.8627C905.769 31.9488 902.116 28.9125 897.496 26.7423L896.858 28.1ZM907.158 36.7L905.913 37.5373C908.194 40.9282 909.358 44.9289 909.358 49.6H910.858H912.358C912.358 44.4044 911.055 39.8052 908.402 35.8627L907.158 36.7ZM910.858 49.6H909.358C909.358 54.1284 908.199 58.1031 905.906 61.5731L907.158 62.4L908.409 63.2269C911.05 59.2302 912.358 54.6716 912.358 49.6H910.858ZM907.158 62.4L905.913 61.5627C903.613 64.9821 900.4 67.6791 896.22 69.6423L896.858 71L897.496 72.3577C902.116 70.1875 905.769 67.1512 908.402 63.2373L907.158 62.4ZM896.858 71L896.237 69.6344C892.067 71.5299 887.186 72.5 881.558 72.5V74V75.5C887.53 75.5 892.849 74.4701 897.479 72.3655L896.858 71ZM881.558 74V72.5H851.858V74V75.5H881.558V74ZM851.858 74H853.358V57.4H851.858H850.358V74H851.858ZM861.858 64.9V66.4H887.758V64.9V63.4H861.858V64.9ZM887.758 64.9L886.549 65.7884L912.349 100.888L913.558 100L914.766 99.1116L888.966 64.0116L887.758 64.9ZM913.558 100V98.5H886.858V100V101.5H913.558V100ZM886.858 100L888.08 99.1298L863.08 64.0298L861.858 64.9L860.636 65.7702L885.636 100.87L886.858 100Z" fill="white" fill-opacity="0.2" mask="url(#path-1-outside-1_460_466)"/>
<path d="M3.6 75.4V73.9H2.06105L2.10049 75.4384L3.6 75.4ZM27.2 75.4L28.6826 75.1719L28.4869 73.9H27.2V75.4ZM29.7 80L28.6655 81.0862L28.6919 81.1114L28.7196 81.1352L29.7 80ZM35.6 83L35.1725 84.4378L35.1905 84.4432L35.2086 84.448L35.6 83ZM55 82.4L54.4306 81.0122L54.4179 81.0175L55 82.4ZM56.7 73.8L55.855 75.0393L55.8746 75.0527L55.8947 75.0655L56.7 73.8ZM48 71.8L47.8754 73.2948L47.885 73.2956L48 71.8ZM34.8 70.7L34.9246 69.2051L34.9108 69.2041L34.8 70.7ZM11.3 63.7L10.3493 64.8602L10.358 64.8674L10.3669 64.8744L11.3 63.7ZM8.8 34.4L9.9315 35.3848L9.94035 35.3745L8.8 34.4ZM21.9 26.1L22.3743 27.523L22.3743 27.523L21.9 26.1ZM61.2 26.4L60.6861 27.8092L60.6913 27.8111L61.2 26.4ZM74.8 35.2L73.6724 36.1892L73.6816 36.1997L73.691 36.21L74.8 35.2ZM80.4 48.3V49.8H82.0033L81.8967 48.2002L80.4 48.3ZM56.8 48.3L55.3242 48.5683L55.5481 49.8H56.8V48.3ZM54.5 44.5L53.4701 45.5905L53.5011 45.6199L53.5338 45.6474L54.5 44.5ZM49.3 41.9L49.6838 40.4499L49.6838 40.4499L49.3 41.9ZM31.3 42.5L30.7364 41.1099L30.7297 41.1126L30.7231 41.1154L31.3 42.5ZM29.8 50.6L28.968 51.8481L28.9812 51.8569L28.9947 51.8655L29.8 50.6ZM37.8 52.5L37.6712 53.9945L37.6763 53.9949L37.8 52.5ZM52.3 53.7L52.1763 55.1949L52.1892 55.1959L52.3 53.7ZM69.7 57.1L69.1502 58.4956L69.1629 58.5006L69.1756 58.5054L69.7 57.1ZM79.4 64L78.1607 64.845L78.1652 64.8517L78.1698 64.8583L79.4 64ZM77.6 89L78.7713 89.9371L78.7788 89.9276L77.6 89ZM64.1 98.4L64.6374 99.8005L64.646 99.7971L64.1 98.4ZM23 98.4L22.4836 99.8083L22.4836 99.8083L23 98.4ZM8.9 89.2L7.75705 90.1715L7.7652 90.1809L8.9 89.2ZM3.6 75.4V76.9H27.2V75.4V73.9H3.6V75.4ZM27.2 75.4L25.7174 75.6281C26.0397 77.723 27.0515 79.549 28.6655 81.0862L29.7 80L30.7345 78.9138C29.5485 77.7843 28.8936 76.5437 28.6826 75.1719L27.2 75.4ZM29.7 80L28.7196 81.1352C30.3906 82.5784 32.5657 83.6628 35.1725 84.4378L35.6 83L36.0275 81.5622C33.701 80.8705 31.9427 79.9549 30.6804 78.8648L29.7 80ZM35.6 83L35.2086 84.448C37.8348 85.1578 40.8722 85.5 44.3 85.5V84V82.5C41.0611 82.5 38.2985 82.1755 35.9914 81.552L35.6 83ZM44.3 84V85.5C48.9832 85.5 52.781 84.9619 55.5821 83.7825L55 82.4L54.4179 81.0175C52.1524 81.9715 48.8168 82.5 44.3 82.5V84ZM55 82.4L55.5693 83.7878C57.0274 83.1896 58.2435 82.3836 59.0986 81.3091C59.9719 80.212 60.4 78.9197 60.4 77.5H58.9H57.4C57.4 78.2803 57.1781 78.9047 56.7514 79.4409C56.3065 79.9998 55.5726 80.5438 54.4307 81.0122L55 82.4ZM58.9 77.5H60.4C60.4 75.3778 59.3364 73.6997 57.5053 72.5345L56.7 73.8L55.8947 75.0655C56.997 75.7669 57.4 76.5555 57.4 77.5H58.9ZM56.7 73.8L57.545 72.5607C56.5875 71.9078 55.2868 71.4389 53.7611 71.0881C52.2136 70.7324 50.3255 70.4745 48.115 70.3044L48 71.8L47.885 73.2956C50.0078 73.4589 51.7365 73.701 53.0889 74.0119C54.4632 74.3278 55.3459 74.6922 55.855 75.0393L56.7 73.8ZM48 71.8L48.1246 70.3052L34.9246 69.2052L34.8 70.7L34.6754 72.1948L47.8754 73.2948L48 71.8ZM34.8 70.7L34.9108 69.2041C24.2142 68.4118 16.7464 66.1115 12.2331 62.5256L11.3 63.7L10.3669 64.8744C15.5869 69.0219 23.7858 71.3882 34.6892 72.1959L34.8 70.7ZM11.3 63.7L12.2507 62.5398C7.82298 58.9115 5.6 54.0832 5.6 47.9H4.1H2.6C2.6 54.9168 5.17703 60.6219 10.3493 64.8602L11.3 63.7ZM4.1 47.9H5.6C5.6 42.8112 7.06712 38.6757 9.93146 35.3848L8.8 34.4L7.66854 33.4152C4.26621 37.3243 2.6 42.1888 2.6 47.9H4.1ZM8.8 34.4L9.94035 35.3745C12.8608 31.957 16.9752 29.3227 22.3743 27.523L21.9 26.1L21.4257 24.677C15.6248 26.6106 11.0059 29.5097 7.65965 33.4255L8.8 34.4ZM21.9 26.1L22.3743 27.523C27.7847 25.7196 34.2173 24.8 41.7 24.8V23.3V21.8C33.9827 21.8 27.2153 22.7471 21.4257 24.677L21.9 26.1ZM41.7 23.3V24.8C48.8947 24.8 55.2153 25.814 60.6861 27.8092L61.2 26.4L61.7139 24.9908C55.8514 22.8527 49.172 21.8 41.7 21.8V23.3ZM61.2 26.4L60.6913 27.8111C66.2349 29.8094 70.5376 32.6155 73.6724 36.1892L74.8 35.2L75.9276 34.2108C72.3958 30.1845 67.6318 27.124 61.7087 24.9889L61.2 26.4ZM74.8 35.2L73.691 36.21C76.8645 39.6946 78.5927 43.7411 78.9033 48.3998L80.4 48.3L81.8967 48.2002C81.5406 42.8589 79.5355 38.1721 75.909 34.19L74.8 35.2ZM80.4 48.3V46.8H56.8V48.3V49.8H80.4V48.3ZM56.8 48.3L58.2758 48.0317C57.9397 46.1831 56.9683 44.6175 55.4662 43.3526L54.5 44.5L53.5338 45.6474C54.565 46.5158 55.127 47.4835 55.3242 48.5683L56.8 48.3ZM54.5 44.5L55.5299 43.4095C54.0875 42.0472 52.0968 41.0887 49.6838 40.4499L49.3 41.9L48.9162 43.3501C51.0365 43.9113 52.5125 44.6862 53.4701 45.5905L54.5 44.5ZM49.3 41.9L49.6838 40.4499C47.258 39.8078 44.4224 39.5 41.2 39.5V41V42.5C44.2443 42.5 46.8086 42.7922 48.9162 43.3501L49.3 41.9ZM41.2 41V39.5C36.9688 39.5 33.4532 40.0085 30.7364 41.1099L31.3 42.5L31.8636 43.8901C34.0801 42.9915 37.1646 42.5 41.2 42.5V41ZM31.3 42.5L30.7231 41.1154C29.3692 41.6795 28.2319 42.4339 27.4287 43.438C26.6067 44.4655 26.2 45.6745 26.2 47H27.7H29.2C29.2 46.3255 29.3934 45.7845 29.7713 45.312C30.1681 44.8161 30.8308 44.3205 31.8769 43.8846L31.3 42.5ZM27.7 47H26.2C26.2 49.0485 27.2222 50.6843 28.968 51.8481L29.8 50.6L30.6321 49.3519C29.5778 48.6491 29.2 47.8848 29.2 47H27.7ZM29.8 50.6L28.9947 51.8655C30.796 53.0118 33.7911 53.66 37.6712 53.9945L37.8 52.5L37.9288 51.0055C34.0756 50.6734 31.7373 50.0549 30.6053 49.3345L29.8 50.6ZM37.8 52.5L37.6763 53.9949L52.1763 55.1949L52.3 53.7L52.4237 52.2051L37.9237 51.0051L37.8 52.5ZM52.3 53.7L52.1892 55.1959C59.3091 55.7233 64.944 56.8386 69.1502 58.4956L69.7 57.1L70.2498 55.7044C65.656 53.8947 59.6909 52.7434 52.4108 52.2041L52.3 53.7ZM69.7 57.1L69.1756 58.5054C73.4498 60.1002 76.3862 62.2425 78.1607 64.845L79.4 64L80.6393 63.155C78.4138 59.8908 74.8836 57.4331 70.2244 55.6946L69.7 57.1ZM79.4 64L78.1698 64.8583C79.9535 67.4148 80.9 70.7272 80.9 74.9H82.4H83.9C83.9 70.2728 82.8465 66.3185 80.6302 63.1417L79.4 64ZM82.4 74.9H80.9C80.9 79.908 79.4063 84.2788 76.4212 88.0724L77.6 89L78.7788 89.9276C82.1937 85.5879 83.9 80.5587 83.9 74.9H82.4ZM77.6 89L76.4287 88.063C73.4252 91.8173 69.1615 94.8115 63.554 97.0029L64.1 98.4L64.646 99.7971C70.6385 97.4552 75.3748 94.1827 78.7713 89.937L77.6 89ZM64.1 98.4L63.5626 96.9996C58.0389 99.1191 51.4953 100.2 43.9 100.2V101.7V103.2C51.7713 103.2 58.6945 102.081 64.6374 99.8004L64.1 98.4ZM43.9 101.7V100.2C36.1019 100.2 29.3165 99.1184 23.5164 96.9917L23 98.4L22.4836 99.8083C28.6835 102.082 35.8314 103.2 43.9 103.2V101.7ZM23 98.4L23.5164 96.9917C17.7012 94.8595 13.2342 91.9203 10.0348 88.2191L8.9 89.2L7.7652 90.1809C11.3658 94.3463 16.2988 97.5405 22.4836 99.8083L23 98.4ZM8.9 89.2L10.0429 88.2285C6.86264 84.487 5.22397 80.2155 5.09951 75.3616L3.6 75.4L2.10049 75.4384C2.2427 80.9845 4.13736 85.913 7.75709 90.1715L8.9 89.2ZM150.942 28.3L150.303 29.6568L150.31 29.6603L150.942 28.3ZM161.742 37.6L160.465 38.3874L160.471 38.3969L161.742 37.6ZM150.942 74.9L150.31 73.5397L150.303 73.5432L150.942 74.9ZM102.042 78.2H100.542V79.7H102.042V78.2ZM102.042 59.8V58.3H100.542V59.8H102.042ZM139.442 57.6L138.451 56.4739L138.44 56.484L138.429 56.4943L139.442 57.6ZM139.442 45.5L138.454 46.6289L138.466 46.6388L138.477 46.6486L139.442 45.5ZM104.042 43.4L102.977 42.3444L100.445 44.9H104.042V43.4ZM114.542 32.8H116.042V29.1543L113.477 31.7444L114.542 32.8ZM114.542 100V101.5H116.042V100H114.542ZM91.2422 100H89.7422V101.5H91.2422V100ZM91.2422 25V23.5H89.7422V25H91.2422ZM134.142 25V26.5C140.511 26.5 145.882 27.5727 150.303 29.6568L150.942 28.3L151.582 26.9432C146.669 24.6273 140.84 23.5 134.142 23.5V25ZM150.942 28.3L150.31 29.6603C154.808 31.7507 158.17 34.6645 160.465 38.3873L161.742 37.6L163.019 36.8127C160.381 32.5355 156.543 29.2493 151.574 26.9397L150.942 28.3ZM161.742 37.6L160.471 38.3969C162.765 42.0547 163.942 46.4351 163.942 51.6H165.442H166.942C166.942 45.9649 165.652 41.012 163.013 36.8031L161.742 37.6ZM165.442 51.6H163.942C163.942 56.6937 162.767 61.08 160.465 64.8127L161.742 65.6L163.019 66.3873C165.65 62.12 166.942 57.173 166.942 51.6H165.442ZM161.742 65.6L160.465 64.8127C158.17 68.5355 154.808 71.4493 150.31 73.5397L150.942 74.9L151.574 76.2603C156.543 73.9507 160.381 70.6645 163.019 66.3873L161.742 65.6ZM150.942 74.9L150.303 73.5432C145.882 75.6273 140.511 76.7 134.142 76.7V78.2V79.7C140.84 79.7 146.669 78.5727 151.582 76.2568L150.942 74.9ZM134.142 78.2V76.7H102.042V78.2V79.7H134.142V78.2ZM102.042 78.2H103.542V59.8H102.042H100.542V78.2H102.042ZM102.042 59.8V61.3H132.642V59.8V58.3H102.042V59.8ZM132.642 59.8V61.3C135.817 61.3 138.494 60.5039 140.456 58.7057L139.442 57.6L138.429 56.4943C137.19 57.6295 135.334 58.3 132.642 58.3V59.8ZM139.442 57.6L140.433 58.7261C142.471 56.9329 143.442 54.4969 143.442 51.6H141.942H140.442C140.442 53.7698 139.747 55.3338 138.451 56.4739L139.442 57.6ZM141.942 51.6H143.442C143.442 48.5994 142.488 46.0999 140.407 44.3514L139.442 45.5L138.477 46.6486C139.729 47.7001 140.442 49.2673 140.442 51.6H141.942ZM139.442 45.5L140.43 44.3711C138.468 42.6544 135.801 41.9 132.642 41.9V43.4V44.9C135.35 44.9 137.216 45.5456 138.454 46.6289L139.442 45.5ZM132.642 43.4V41.9H104.042V43.4V44.9H132.642V43.4ZM104.042 43.4L105.108 44.4556L115.608 33.8556L114.542 32.8L113.477 31.7444L102.977 42.3444L104.042 43.4ZM114.542 32.8H113.042V100H114.542H116.042V32.8H114.542ZM114.542 100V98.5H91.2422V100V101.5H114.542V100ZM91.2422 100H92.7422V25H91.2422H89.7422V100H91.2422ZM91.2422 25V26.5H134.142V25V23.5H91.2422V25ZM237.871 54.3H239.371V52.8H237.871V54.3ZM237.871 70.7V72.2H239.371V70.7H237.871ZM182.171 70.7H180.671V72.2H182.171V70.7ZM182.171 54.3V52.8H180.671V54.3H182.171ZM198.071 62.5L199.552 62.74L199.591 62.5L199.552 62.26L198.071 62.5ZM193.371 91.5L192.257 92.5041L194.351 94.8287L194.852 91.74L193.371 91.5ZM184.271 81.4V79.9H180.901L183.157 82.4041L184.271 81.4ZM241.371 81.4H242.871V79.9H241.371V81.4ZM241.371 100V101.5H242.871V100H241.371ZM170.271 100L168.788 99.7785L168.53 101.5H170.271V100ZM175.871 62.5L177.355 62.7215L177.388 62.5L177.355 62.2785L175.871 62.5ZM170.271 25V23.5H168.53L168.788 25.2215L170.271 25ZM240.871 25H242.371V23.5H240.871V25ZM240.871 43.6V45.1H242.371V43.6H240.871ZM184.271 43.6L183.157 42.5959L180.901 45.1H184.271V43.6ZM193.371 33.5L194.852 33.26L194.351 30.1713L192.257 32.4959L193.371 33.5ZM237.871 54.3H236.371V70.7H237.871H239.371V54.3H237.871ZM237.871 70.7V69.2H182.171V70.7V72.2H237.871V70.7ZM182.171 70.7H183.671V54.3H182.171H180.671V70.7H182.171ZM182.171 54.3V55.8H237.871V54.3V52.8H182.171V54.3ZM198.071 62.5L196.59 62.26L191.89 91.26L193.371 91.5L194.852 91.74L199.552 62.74L198.071 62.5ZM193.371 91.5L194.485 90.4959L185.385 80.3959L184.271 81.4L183.157 82.4041L192.257 92.5041L193.371 91.5ZM184.271 81.4V82.9H241.371V81.4V79.9H184.271V81.4ZM241.371 81.4H239.871V100H241.371H242.871V81.4H241.371ZM241.371 100V98.5H170.271V100V101.5H241.371V100ZM170.271 100L171.755 100.222L177.355 62.7215L175.871 62.5L174.388 62.2785L168.788 99.7785L170.271 100ZM175.871 62.5L177.355 62.2785L171.755 24.7785L170.271 25L168.788 25.2215L174.388 62.7215L175.871 62.5ZM170.271 25V26.5H240.871V25V23.5H170.271V25ZM240.871 25H239.371V43.6H240.871H242.371V25H240.871ZM240.871 43.6V42.1H184.271V43.6V45.1H240.871V43.6ZM184.271 43.6L185.385 44.6041L194.485 34.5041L193.371 33.5L192.257 32.4959L183.157 42.5959L184.271 43.6ZM193.371 33.5L191.89 33.74L196.59 62.74L198.071 62.5L199.552 62.26L194.852 33.26L193.371 33.5ZM317.145 54.3H318.645V52.8H317.145V54.3ZM317.145 70.7V72.2H318.645V70.7H317.145ZM261.445 70.7H259.945V72.2H261.445V70.7ZM261.445 54.3V52.8H259.945V54.3H261.445ZM277.345 62.5L278.825 62.74L278.864 62.5L278.825 62.26L277.345 62.5ZM272.645 91.5L271.53 92.5041L273.625 94.8287L274.125 91.74L272.645 91.5ZM263.545 81.4V79.9H260.174L262.43 82.4041L263.545 81.4ZM320.645 81.4H322.145V79.9H320.645V81.4ZM320.645 100V101.5H322.145V100H320.645ZM249.545 100L248.061 99.7785L247.804 101.5H249.545V100ZM255.145 62.5L256.628 62.7215L256.661 62.5L256.628 62.2785L255.145 62.5ZM249.545 25V23.5H247.804L248.061 25.2215L249.545 25ZM320.145 25H321.645V23.5H320.145V25ZM320.145 43.6V45.1H321.645V43.6H320.145ZM263.545 43.6L262.43 42.5959L260.174 45.1H263.545V43.6ZM272.645 33.5L274.125 33.26L273.625 30.1713L271.53 32.4959L272.645 33.5ZM317.145 54.3H315.645V70.7H317.145H318.645V54.3H317.145ZM317.145 70.7V69.2H261.445V70.7V72.2H317.145V70.7ZM261.445 70.7H262.945V54.3H261.445H259.945V70.7H261.445ZM261.445 54.3V55.8H317.145V54.3V52.8H261.445V54.3ZM277.345 62.5L275.864 62.26L271.164 91.26L272.645 91.5L274.125 91.74L278.825 62.74L277.345 62.5ZM272.645 91.5L273.759 90.4959L264.659 80.3959L263.545 81.4L262.43 82.4041L271.53 92.5041L272.645 91.5ZM263.545 81.4V82.9H320.645V81.4V79.9H263.545V81.4ZM320.645 81.4H319.145V100H320.645H322.145V81.4H320.645ZM320.645 100V98.5H249.545V100V101.5H320.645V100ZM249.545 100L251.028 100.222L256.628 62.7215L255.145 62.5L253.661 62.2785L248.061 99.7785L249.545 100ZM255.145 62.5L256.628 62.2785L251.028 24.7785L249.545 25L248.061 25.2215L253.661 62.7215L255.145 62.5ZM249.545 25V26.5H320.145V25V23.5H249.545V25ZM320.145 25H318.645V43.6H320.145H321.645V25H320.145ZM320.145 43.6V42.1H263.545V43.6V45.1H320.145V43.6ZM263.545 43.6L264.659 44.6041L273.759 34.5041L272.645 33.5L271.53 32.4959L262.43 42.5959L263.545 43.6ZM272.645 33.5L271.164 33.74L275.864 62.74L277.345 62.5L278.825 62.26L274.125 33.26L272.645 33.5ZM393.118 29.7L392.485 31.06L392.493 31.0637L392.501 31.0674L393.118 29.7ZM408.918 42.7L407.67 43.5321L407.677 43.5423L408.918 42.7ZM408.918 82.3L407.672 81.4646L407.67 81.4679L408.918 82.3ZM393.118 95.4L393.74 96.7651L393.746 96.7623L393.118 95.4ZM330.918 100H329.418V101.5H330.918V100ZM330.918 25V23.5H329.418V25H330.918ZM354.018 89.9L352.962 90.9656L355.518 93.4974V89.9H354.018ZM343.318 79.3V77.8H339.672L342.262 80.3656L343.318 79.3ZM381.818 77.3L382.439 78.6655L382.446 78.6624L382.452 78.6593L381.818 77.3ZM388.718 71.4L387.45 70.599L387.45 70.599L388.718 71.4ZM388.718 53.6L387.45 54.401L387.455 54.4087L387.46 54.4163L388.718 53.6ZM381.818 47.8L381.172 49.1537L381.19 49.1625L381.209 49.1707L381.818 47.8ZM343.318 45.7L342.262 44.6344L339.672 47.2H343.318V45.7ZM354.018 35.1H355.518V31.5026L352.962 34.0344L354.018 35.1ZM369.518 25V26.5C378.345 26.5 385.987 28.0363 392.485 31.06L393.118 29.7L393.751 28.34C386.782 25.097 378.691 23.5 369.518 23.5V25ZM393.118 29.7L392.501 31.0674C399.073 34.0313 404.109 38.1911 407.67 43.532L408.918 42.7L410.166 41.8679C406.26 36.0089 400.762 31.502 393.735 28.3326L393.118 29.7ZM408.918 42.7L407.677 43.5423C411.288 48.8638 413.118 55.162 413.118 62.5H414.618H416.118C416.118 54.638 414.148 47.7362 410.159 41.8577L408.918 42.7ZM414.618 62.5H413.118C413.118 69.7681 411.289 76.0705 407.672 81.4646L408.918 82.3L410.164 83.1354C414.147 77.1962 416.118 70.2986 416.118 62.5H414.618ZM408.918 82.3L407.67 81.4679C404.107 86.8119 399.068 91.0069 392.49 94.0377L393.118 95.4L393.746 96.7623C400.768 93.5264 406.262 88.9881 410.166 83.1321L408.918 82.3ZM393.118 95.4L392.496 94.0349C385.996 96.9956 378.349 98.5 369.518 98.5V100V101.5C378.687 101.5 386.774 99.9378 393.74 96.7651L393.118 95.4ZM369.518 100V98.5H330.918V100V101.5H369.518V100ZM330.918 100H332.418V25H330.918H329.418V100H330.918ZM330.918 25V26.5H369.518V25V23.5H330.918V25ZM354.018 89.9L355.074 88.8344L344.374 78.2344L343.318 79.3L342.262 80.3656L352.962 90.9656L354.018 89.9ZM343.318 79.3V80.8H371.318V79.3V77.8H343.318V79.3ZM371.318 79.3V80.8C375.544 80.8 379.266 80.1075 382.439 78.6655L381.818 77.3L381.197 75.9344C378.503 77.1592 375.225 77.8 371.318 77.8V79.3ZM381.818 77.3L382.452 78.6593C385.684 77.151 388.217 75.0024 389.986 72.201L388.718 71.4L387.45 70.599C386.019 72.8642 383.952 74.649 381.184 75.9407L381.818 77.3ZM388.718 71.4L389.986 72.201C391.757 69.3968 392.618 66.1443 392.618 62.5H391.118H389.618C389.618 65.6557 388.879 68.3365 387.45 70.599L388.718 71.4ZM391.118 62.5H392.618C392.618 58.7964 391.761 55.5342 389.976 52.7837L388.718 53.6L387.46 54.4163C388.875 56.5991 389.618 59.2703 389.618 62.5H391.118ZM388.718 53.6L389.986 52.799C388.213 49.9908 385.671 47.8711 382.427 46.4293L381.818 47.8L381.209 49.1707C383.965 50.3955 386.023 52.1425 387.45 54.401L388.718 53.6ZM381.818 47.8L382.464 46.4463C379.285 44.9289 375.554 44.2 371.318 44.2V45.7V47.2C375.216 47.2 378.484 47.8711 381.172 49.1537L381.818 47.8ZM371.318 45.7V44.2H343.318V45.7V47.2H371.318V45.7ZM343.318 45.7L344.374 46.7656L355.074 36.1656L354.018 35.1L352.962 34.0344L342.262 44.6344L343.318 45.7ZM354.018 35.1H352.518V89.9H354.018H355.518V35.1H354.018ZM439.573 57.4V55.9H438.073V57.4H439.573ZM472.573 55.4L471.636 54.2287L471.624 54.2381L471.612 54.2477L472.573 55.4ZM472.573 43.8L471.612 44.9523L471.624 44.9619L471.636 44.9713L472.573 43.8ZM436.273 41.8L435.197 40.7544L432.722 43.3H436.273V41.8ZM446.773 31H448.273V27.3053L445.697 29.9544L446.773 31ZM446.773 100V101.5H448.273V100H446.773ZM423.473 100H421.973V101.5H423.473V100ZM423.473 25V23.5H421.973V25H423.473ZM484.573 28.1L485.21 26.7423L485.21 26.7423L484.573 28.1ZM494.873 36.7L496.117 35.8627L494.873 36.7ZM494.873 62.4L496.117 63.2373L496.124 63.2269L494.873 62.4ZM484.573 71L485.193 72.3655L485.202 72.3617L485.21 72.3577L484.573 71ZM439.573 74H438.073V75.5H439.573V74ZM449.573 64.9V63.4H446.663L448.351 65.7702L449.573 64.9ZM475.473 64.9L476.681 64.0116L476.232 63.4H475.473V64.9ZM501.273 100V101.5H504.237L502.481 99.1116L501.273 100ZM474.573 100L473.351 100.87L473.799 101.5H474.573V100ZM439.573 57.4V58.9H465.773V57.4V55.9H439.573V57.4ZM465.773 57.4V58.9C468.916 58.9 471.572 58.1867 473.533 56.5523L472.573 55.4L471.612 54.2477C470.374 55.28 468.496 55.9 465.773 55.9V57.4ZM472.573 55.4L473.51 56.5713C475.6 54.8988 476.573 52.494 476.573 49.6H475.073H473.573C473.573 51.7726 472.878 53.2345 471.636 54.2287L472.573 55.4ZM475.073 49.6H476.573C476.573 46.706 475.6 44.3012 473.51 42.6287L472.573 43.8L471.636 44.9713C472.878 45.9655 473.573 47.4274 473.573 49.6H475.073ZM472.573 43.8L473.533 42.6477C471.572 41.0133 468.916 40.3 465.773 40.3V41.8V43.3C468.496 43.3 470.374 43.92 471.612 44.9523L472.573 43.8ZM465.773 41.8V40.3H436.273V41.8V43.3H465.773V41.8ZM436.273 41.8L437.348 42.8456L447.848 32.0456L446.773 31L445.697 29.9544L435.197 40.7544L436.273 41.8ZM446.773 31H445.273V100H446.773H448.273V31H446.773ZM446.773 100V98.5H423.473V100V101.5H446.773V100ZM423.473 100H424.973V25H423.473H421.973V100H423.473ZM423.473 25V26.5H469.273V25V23.5H423.473V25ZM469.273 25V26.5C474.894 26.5 479.769 27.5011 483.935 29.4577L484.573 28.1L485.21 26.7423C480.576 24.5656 475.251 23.5 469.273 23.5V25ZM484.573 28.1L483.935 29.4577C488.115 31.4209 491.328 34.1179 493.628 37.5373L494.873 36.7L496.117 35.8627C493.484 31.9488 489.831 28.9125 485.21 26.7423L484.573 28.1ZM494.873 36.7L493.628 37.5373C495.909 40.9282 497.073 44.9289 497.073 49.6H498.573H500.073C500.073 44.4044 498.769 39.8052 496.117 35.8627L494.873 36.7ZM498.573 49.6H497.073C497.073 54.1284 495.914 58.1031 493.621 61.5731L494.873 62.4L496.124 63.2269C498.765 59.2302 500.073 54.6716 500.073 49.6H498.573ZM494.873 62.4L493.628 61.5627C491.328 64.9821 488.115 67.6791 483.935 69.6423L484.573 71L485.21 72.3577C489.831 70.1875 493.484 67.1512 496.117 63.2373L494.873 62.4ZM484.573 71L483.952 69.6344C479.782 71.5299 474.901 72.5 469.273 72.5V74V75.5C475.245 75.5 480.563 74.4701 485.193 72.3655L484.573 71ZM469.273 74V72.5H439.573V74V75.5H469.273V74ZM439.573 74H441.073V57.4H439.573H438.073V74H439.573ZM449.573 64.9V66.4H475.473V64.9V63.4H449.573V64.9ZM475.473 64.9L474.264 65.7884L500.064 100.888L501.273 100L502.481 99.1116L476.681 64.0116L475.473 64.9ZM501.273 100V98.5H474.573V100V101.5H501.273V100ZM474.573 100L475.794 99.1298L450.794 64.0298L449.573 64.9L448.351 65.7702L473.351 100.87L474.573 100ZM526.32 96.8L525.665 98.1496L525.67 98.1521L526.32 96.8ZM510.52 83.1L509.254 83.9053L509.261 83.9155L510.52 83.1ZM510.52 41.9L509.261 41.0845L509.254 41.0947L510.52 41.9ZM526.32 28.2L525.67 26.8479L525.665 26.8504L526.32 28.2ZM573.62 28.2L572.965 29.5496L572.97 29.5521L573.62 28.2ZM589.42 41.9L588.154 42.7053L588.161 42.7155L589.42 41.9ZM589.42 83.1L588.161 82.2845L588.154 82.2947L589.42 83.1ZM573.62 96.8L572.97 95.4479L572.965 95.4504L573.62 96.8ZM561.52 78.8L562.145 80.1637L562.157 80.1579L561.52 78.8ZM569.02 72.4L570.286 73.2033L570.291 73.1964L570.295 73.1895L569.02 72.4ZM569.02 52.7L567.744 53.4895L567.748 53.4964L567.753 53.5033L569.02 52.7ZM561.52 46.3L560.871 47.6527L560.888 47.6608L560.905 47.6684L561.52 46.3ZM538.42 46.3L539.045 47.6637L539.057 47.6579L538.42 46.3ZM531.02 52.7L532.286 53.5033L532.291 53.4964L532.295 53.4895L531.02 52.7ZM531.02 72.4L529.744 73.1895L529.748 73.1964L529.753 73.2033L531.02 72.4ZM538.42 78.8L537.771 80.1527L537.788 80.1608L537.805 80.1684L538.42 78.8ZM550.02 101.7V100.2C541.201 100.2 533.531 98.6002 526.969 95.4479L526.32 96.8L525.67 98.1521C532.708 101.533 540.838 103.2 550.02 103.2V101.7ZM526.32 96.8L526.974 95.4504C520.469 92.2945 515.419 87.905 511.779 82.2845L510.52 83.1L509.261 83.9155C513.22 90.0283 518.703 94.7721 525.665 98.1496L526.32 96.8ZM510.52 83.1L511.785 82.2947C508.224 76.6992 506.42 70.1199 506.42 62.5H504.92H503.42C503.42 70.6134 505.348 77.7674 509.254 83.9053L510.52 83.1ZM504.92 62.5H506.42C506.42 54.8801 508.224 48.3008 511.785 42.7053L510.52 41.9L509.254 41.0947C505.348 47.2326 503.42 54.3866 503.42 62.5H504.92ZM510.52 41.9L511.779 42.7155C515.419 37.095 520.469 32.7055 526.974 29.5496L526.32 28.2L525.665 26.8504C518.703 30.2279 513.22 34.9717 509.261 41.0845L510.52 41.9ZM526.32 28.2L526.969 29.5521C533.531 26.3998 541.201 24.8 550.02 24.8V23.3V21.8C540.838 21.8 532.708 23.4669 525.67 26.8479L526.32 28.2ZM550.02 23.3V24.8C558.838 24.8 566.473 26.3999 572.965 29.5496L573.62 28.2L574.274 26.8504C567.3 23.4667 559.201 21.8 550.02 21.8V23.3ZM573.62 28.2L572.97 29.5521C579.54 32.7082 584.584 37.0948 588.154 42.7053L589.42 41.9L590.685 41.0947C586.789 34.9719 581.299 30.2251 574.269 26.8479L573.62 28.2ZM589.42 41.9L588.161 42.7155C591.784 48.3096 593.62 54.8853 593.62 62.5H595.12H596.62C596.62 54.3814 594.655 47.2237 590.679 41.0845L589.42 41.9ZM595.12 62.5H593.62C593.62 70.1147 591.784 76.6904 588.161 82.2845L589.42 83.1L590.679 83.9155C594.655 77.7763 596.62 70.6186 596.62 62.5H595.12ZM589.42 83.1L588.154 82.2947C584.584 87.9052 579.54 92.2918 572.97 95.4479L573.62 96.8L574.269 98.1521C581.299 94.7749 586.789 90.0281 590.685 83.9053L589.42 83.1ZM573.62 96.8L572.965 95.4504C566.473 98.6 558.838 100.2 550.02 100.2V101.7V103.2C559.201 103.2 567.3 101.533 574.274 98.1496L573.62 96.8ZM550.02 81V82.5C554.646 82.5 558.703 81.7409 562.145 80.1636L561.52 78.8L560.895 77.4364C557.936 78.7924 554.327 79.5 550.02 79.5V81ZM561.52 78.8L562.157 80.1579C565.651 78.5177 568.383 76.2047 570.286 73.2033L569.02 72.4L567.753 71.5967C566.189 74.062 563.921 76.0156 560.882 77.4421L561.52 78.8ZM569.02 72.4L570.295 73.1895C572.197 70.1177 573.12 66.5352 573.12 62.5H571.62H570.12C570.12 66.0648 569.309 69.0823 567.744 71.6105L569.02 72.4ZM571.62 62.5H573.12C573.12 58.4659 572.197 54.9095 570.286 51.8967L569.02 52.7L567.753 53.5033C569.309 55.9572 570.12 58.9341 570.12 62.5H571.62ZM569.02 52.7L570.295 51.9105C568.39 48.8335 565.649 46.5097 562.134 44.9316L561.52 46.3L560.905 47.6684C563.924 49.0236 566.182 50.9665 567.744 53.4895L569.02 52.7ZM561.52 46.3L562.168 44.9473C558.72 43.2953 554.654 42.5 550.02 42.5V44V45.5C554.318 45.5 557.919 46.2381 560.871 47.6527L561.52 46.3ZM550.02 44V42.5C545.384 42.5 541.29 43.2957 537.782 44.9421L538.42 46.3L539.057 47.6579C542.083 46.2377 545.722 45.5 550.02 45.5V44ZM538.42 46.3L537.795 44.9364C534.345 46.5173 531.644 48.8416 529.744 51.9105L531.02 52.7L532.295 53.4895C533.862 50.9584 536.094 49.0161 539.045 47.6636L538.42 46.3ZM531.02 52.7L529.753 51.8967C527.842 54.9095 526.92 58.4659 526.92 62.5H528.42H529.92C529.92 58.9341 530.73 55.9572 532.286 53.5033L531.02 52.7ZM528.42 62.5H526.92C526.92 66.5352 527.843 70.1177 529.744 73.1895L531.02 72.4L532.295 71.6105C530.73 69.0823 529.92 66.0648 529.92 62.5H528.42ZM531.02 72.4L529.753 73.2033C531.651 76.1968 534.343 78.51 537.771 80.1527L538.42 78.8L539.068 77.4473C536.096 76.0233 533.855 74.0699 532.286 71.5967L531.02 72.4ZM538.42 78.8L537.805 80.1684C541.307 81.7405 545.392 82.5 550.02 82.5V81V79.5C545.714 79.5 542.066 78.7929 539.034 77.4316L538.42 78.8ZM627.292 25H628.792V23.5H627.292V25ZM627.292 89.7L626.237 90.7657L628.792 93.297V89.7H627.292ZM616.792 79.3V77.8H613.146L615.737 80.3657L616.792 79.3ZM672.692 79.3H674.192V77.8H672.692V79.3ZM672.692 100V101.5H674.192V100H672.692ZM603.992 100H602.492V101.5H603.992V100ZM603.992 25V23.5H602.492V25H603.992ZM627.292 25H625.792V89.7H627.292H628.792V25H627.292ZM627.292 89.7L628.348 88.6343L617.848 78.2343L616.792 79.3L615.737 80.3657L626.237 90.7657L627.292 89.7ZM616.792 79.3V80.8H672.692V79.3V77.8H616.792V79.3ZM672.692 79.3H671.192V100H672.692H674.192V79.3H672.692ZM672.692 100V98.5H603.992V100V101.5H672.692V100ZM603.992 100H605.492V25H603.992H602.492V100H603.992ZM603.992 25V26.5H627.292V25V23.5H603.992V25ZM703.538 25H705.038V23.5H703.538V25ZM703.538 89.7L702.483 90.7657L705.038 93.297V89.7H703.538ZM693.038 79.3V77.8H689.392L691.983 80.3657L693.038 79.3ZM748.938 79.3H750.438V77.8H748.938V79.3ZM748.938 100V101.5H750.438V100H748.938ZM680.238 100H678.738V101.5H680.238V100ZM680.238 25V23.5H678.738V25H680.238ZM703.538 25H702.038V89.7H703.538H705.038V25H703.538ZM703.538 89.7L704.594 88.6343L694.094 78.2343L693.038 79.3L691.983 80.3657L702.483 90.7657L703.538 89.7ZM693.038 79.3V80.8H748.938V79.3V77.8H693.038V79.3ZM748.938 79.3H747.438V100H748.938H750.438V79.3H748.938ZM748.938 100V98.5H680.238V100V101.5H748.938V100ZM680.238 100H681.738V25H680.238H678.738V100H680.238ZM680.238 25V26.5H703.538V25V23.5H680.238V25ZM821.984 54.3H823.484V52.8H821.984V54.3ZM821.984 70.7V72.2H823.484V70.7H821.984ZM766.284 70.7H764.784V72.2H766.284V70.7ZM766.284 54.3V52.8H764.784V54.3H766.284ZM782.184 62.5L783.665 62.74L783.704 62.5L783.665 62.26L782.184 62.5ZM777.484 91.5L776.37 92.5041L778.464 94.8287L778.965 91.74L777.484 91.5ZM768.384 81.4V79.9H765.014L767.27 82.4041L768.384 81.4ZM825.484 81.4H826.984V79.9H825.484V81.4ZM825.484 100V101.5H826.984V100H825.484ZM754.384 100L752.901 99.7785L752.644 101.5H754.384V100ZM759.984 62.5L761.468 62.7215L761.501 62.5L761.468 62.2785L759.984 62.5ZM754.384 25V23.5H752.644L752.901 25.2215L754.384 25ZM824.984 25H826.484V23.5H824.984V25ZM824.984 43.6V45.1H826.484V43.6H824.984ZM768.384 43.6L767.27 42.5959L765.014 45.1H768.384V43.6ZM777.484 33.5L778.965 33.26L778.464 30.1713L776.37 32.4959L777.484 33.5ZM821.984 54.3H820.484V70.7H821.984H823.484V54.3H821.984ZM821.984 70.7V69.2H766.284V70.7V72.2H821.984V70.7ZM766.284 70.7H767.784V54.3H766.284H764.784V70.7H766.284ZM766.284 54.3V55.8H821.984V54.3V52.8H766.284V54.3ZM782.184 62.5L780.704 62.26L776.004 91.26L777.484 91.5L778.965 91.74L783.665 62.74L782.184 62.5ZM777.484 91.5L778.599 90.4959L769.499 80.3959L768.384 81.4L767.27 82.4041L776.37 92.5041L777.484 91.5ZM768.384 81.4V82.9H825.484V81.4V79.9H768.384V81.4ZM825.484 81.4H823.984V100H825.484H826.984V81.4H825.484ZM825.484 100V98.5H754.384V100V101.5H825.484V100ZM754.384 100L755.868 100.222L761.468 62.7215L759.984 62.5L758.501 62.2785L752.901 99.7785L754.384 100ZM759.984 62.5L761.468 62.2785L755.868 24.7785L754.384 25L752.901 25.2215L758.501 62.7215L759.984 62.5ZM754.384 25V26.5H824.984V25V23.5H754.384V25ZM824.984 25H823.484V43.6H824.984H826.484V25H824.984ZM824.984 43.6V42.1H768.384V43.6V45.1H824.984V43.6ZM768.384 43.6L769.499 44.6041L778.599 34.5041L777.484 33.5L776.37 32.4959L767.27 42.5959L768.384 43.6ZM777.484 33.5L776.004 33.74L780.704 62.74L782.184 62.5L783.665 62.26L778.965 33.26L777.484 33.5ZM851.858 57.4V55.9H850.358V57.4H851.858ZM884.858 55.4L883.921 54.2287L883.909 54.2381L883.898 54.2477L884.858 55.4ZM884.858 43.8L883.898 44.9523L883.909 44.9619L883.921 44.9713L884.858 43.8ZM848.558 41.8L847.482 40.7544L845.007 43.3H848.558V41.8ZM859.058 31H860.558V27.3053L857.982 29.9544L859.058 31ZM859.058 100V101.5H860.558V100H859.058ZM835.758 100H834.258V101.5H835.758V100ZM835.758 25V23.5H834.258V25H835.758ZM896.858 28.1L897.496 26.7423L897.496 26.7423L896.858 28.1ZM907.158 36.7L908.402 35.8627L907.158 36.7ZM907.158 62.4L908.402 63.2373L908.409 63.2269L907.158 62.4ZM896.858 71L897.479 72.3655L897.487 72.3617L897.496 72.3577L896.858 71ZM851.858 74H850.358V75.5H851.858V74ZM861.858 64.9V63.4H858.948L860.636 65.7702L861.858 64.9ZM887.758 64.9L888.966 64.0116L888.517 63.4H887.758V64.9ZM913.558 100V101.5H916.522L914.766 99.1116L913.558 100ZM886.858 100L885.636 100.87L886.085 101.5H886.858V100ZM851.858 57.4V58.9H878.058V57.4V55.9H851.858V57.4ZM878.058 57.4V58.9C881.201 58.9 883.857 58.1867 885.818 56.5523L884.858 55.4L883.898 54.2477C882.659 55.28 880.782 55.9 878.058 55.9V57.4ZM884.858 55.4L885.795 56.5713C887.885 54.8988 888.858 52.494 888.858 49.6H887.358H885.858C885.858 51.7726 885.164 53.2345 883.921 54.2287L884.858 55.4ZM887.358 49.6H888.858C888.858 46.706 887.885 44.3012 885.795 42.6287L884.858 43.8L883.921 44.9713C885.164 45.9655 885.858 47.4274 885.858 49.6H887.358ZM884.858 43.8L885.818 42.6477C883.857 41.0133 881.201 40.3 878.058 40.3V41.8V43.3C880.782 43.3 882.659 43.92 883.898 44.9523L884.858 43.8ZM878.058 41.8V40.3H848.558V41.8V43.3H878.058V41.8ZM848.558 41.8L849.633 42.8456L860.133 32.0456L859.058 31L857.982 29.9544L847.482 40.7544L848.558 41.8ZM859.058 31H857.558V100H859.058H860.558V31H859.058ZM859.058 100V98.5H835.758V100V101.5H859.058V100ZM835.758 100H837.258V25H835.758H834.258V100H835.758ZM835.758 25V26.5H881.558V25V23.5H835.758V25ZM881.558 25V26.5C887.179 26.5 892.054 27.5011 896.22 29.4577L896.858 28.1L897.496 26.7423C892.861 24.5656 887.536 23.5 881.558 23.5V25ZM896.858 28.1L896.22 29.4577C900.4 31.4209 903.613 34.1179 905.913 37.5373L907.158 36.7L908.402 35.8627C905.769 31.9488 902.116 28.9125 897.496 26.7423L896.858 28.1ZM907.158 36.7L905.913 37.5373C908.194 40.9282 909.358 44.9289 909.358 49.6H910.858H912.358C912.358 44.4044 911.055 39.8052 908.402 35.8627L907.158 36.7ZM910.858 49.6H909.358C909.358 54.1284 908.199 58.1031 905.906 61.5731L907.158 62.4L908.409 63.2269C911.05 59.2302 912.358 54.6716 912.358 49.6H910.858ZM907.158 62.4L905.913 61.5627C903.613 64.9821 900.4 67.6791 896.22 69.6423L896.858 71L897.496 72.3577C902.116 70.1875 905.769 67.1512 908.402 63.2373L907.158 62.4ZM896.858 71L896.237 69.6344C892.067 71.5299 887.186 72.5 881.558 72.5V74V75.5C887.53 75.5 892.849 74.4701 897.479 72.3655L896.858 71ZM881.558 74V72.5H851.858V74V75.5H881.558V74ZM851.858 74H853.358V57.4H851.858H850.358V74H851.858ZM861.858 64.9V66.4H887.758V64.9V63.4H861.858V64.9ZM887.758 64.9L886.549 65.7884L912.349 100.888L913.558 100L914.766 99.1116L888.966 64.0116L887.758 64.9ZM913.558 100V98.5H886.858V100V101.5H913.558V100ZM886.858 100L888.08 99.1298L863.08 64.0298L861.858 64.9L860.636 65.7702L885.636 100.87L886.858 100Z" fill="url(#paint0_linear_460_466)" mask="url(#path-1-outside-1_460_466)"/>
<defs>
<linearGradient id="paint0_linear_460_466" x1="-3.83266e-08" y1="62" x2="945" y2="100" gradientUnits="userSpaceOnUse">
<stop stop-color="#FFBB43"/>
<stop offset="0.605769" stop-color="#D34D0D"/>
<stop offset="1" stop-color="#331A36"/>
</linearGradient>
</defs>
</svg>
