<svg width="916" height="83" viewBox="0 0 916 83" fill="none" xmlns="http://www.w3.org/2000/svg">
<mask id="path-1-outside-1_460_462" maskUnits="userSpaceOnUse" x="-0.547852" y="-0.299805" width="917" height="83" fill="black">
<rect fill="white" x="-0.547852" y="-0.299805" width="917" height="83"/>
<path d="M2.05215 54.1002H25.6521C25.9188 55.8335 26.7522 57.3669 28.1522 58.7002C29.6188 59.9669 31.5855 60.9669 34.0521 61.7002C36.5188 62.3669 39.4188 62.7002 42.7522 62.7002C47.3522 62.7002 50.9188 62.1669 53.4521 61.1002C56.0522 60.0335 57.3522 58.4002 57.3522 56.2002C57.3522 54.6669 56.6188 53.4335 55.1522 52.5002C53.6855 51.5002 50.7855 50.8335 46.4522 50.5002L33.2522 49.4002C22.4521 48.6002 14.6188 46.2669 9.75215 42.4002C4.95215 38.4669 2.55215 33.2002 2.55215 26.6002C2.55215 21.2002 4.11882 16.7002 7.25215 13.1002C10.3855 9.43353 14.7521 6.66686 20.3521 4.80019C25.9521 2.93353 32.5521 2.00019 40.1522 2.00019C47.4855 2.00019 53.9855 3.03353 59.6522 5.10019C65.3855 7.16686 69.9188 10.1002 73.2522 13.9002C76.6522 17.6335 78.5188 22.0002 78.8522 27.0002H55.2522C54.9855 25.5335 54.2188 24.2669 52.9522 23.2002C51.7521 22.0669 50.0188 21.2002 47.7522 20.6002C45.4855 20.0002 42.7855 19.7002 39.6522 19.7002C35.5188 19.7002 32.2188 20.2002 29.7522 21.2002C27.3521 22.2002 26.1521 23.7002 26.1521 25.7002C26.1521 27.1669 26.8521 28.3669 28.2521 29.3002C29.7188 30.2335 32.3855 30.8669 36.2522 31.2002L50.7521 32.4002C57.9522 32.9335 63.7522 34.0669 68.1522 35.8002C72.6188 37.4669 75.8522 39.7669 77.8522 42.7002C79.8522 45.5669 80.8522 49.2002 80.8522 53.6002C80.8522 58.9335 79.2522 63.6335 76.0522 67.7002C72.8522 71.7002 68.3522 74.8335 62.5522 77.1002C56.8188 79.3002 50.0855 80.4002 42.3521 80.4002C34.4188 80.4002 27.4522 79.3002 21.4521 77.1002C15.4521 74.9002 10.7521 71.8335 7.35215 67.9002C3.95215 63.9002 2.18548 59.3002 2.05215 54.1002ZM132.594 3.70019C139.128 3.70019 144.728 4.80019 149.394 7.00019C154.128 9.20019 157.728 12.3002 160.194 16.3002C162.661 20.2335 163.894 24.9002 163.894 30.3002C163.894 35.6335 162.661 40.3002 160.194 44.3002C157.728 48.3002 154.128 51.4002 149.394 53.6002C144.728 55.8002 139.128 56.9002 132.594 56.9002H100.494V38.5002H131.094C134.028 38.5002 136.294 37.7669 137.894 36.3002C139.561 34.8335 140.394 32.8335 140.394 30.3002C140.394 27.6335 139.561 25.6002 137.894 24.2002C136.294 22.8002 134.028 22.1002 131.094 22.1002H102.494L112.994 11.5002V78.7002H89.6943V3.70019H132.594ZM236.323 33.0002V49.4002H180.623V33.0002H236.323ZM196.523 41.2002L191.823 70.2002L182.723 60.1002H239.823V78.7002H168.723L174.323 41.2002L168.723 3.70019H239.323V22.3002H182.723L191.823 12.2002L196.523 41.2002ZM315.597 33.0002V49.4002H259.897V33.0002H315.597ZM275.797 41.2002L271.097 70.2002L261.997 60.1002H319.097V78.7002H247.997L253.597 41.2002L247.997 3.70019H318.597V22.3002H261.997L271.097 12.2002L275.797 41.2002ZM367.97 3.70019C376.97 3.70019 384.837 5.26686 391.57 8.40019C398.37 11.4669 403.637 15.8002 407.37 21.4002C411.17 27.0002 413.07 33.6002 413.07 41.2002C413.07 48.7335 411.17 55.3335 407.37 61.0002C403.637 66.6002 398.37 70.9669 391.57 74.1002C384.837 77.1669 376.97 78.7002 367.97 78.7002H329.37V3.70019H367.97ZM352.47 68.6002L341.77 58.0002H369.77C373.837 58.0002 377.337 57.3335 380.27 56.0002C383.27 54.6002 385.57 52.6335 387.17 50.1002C388.77 47.5669 389.57 44.6002 389.57 41.2002C389.57 37.7335 388.77 34.7669 387.17 32.3002C385.57 29.7669 383.27 27.8335 380.27 26.5002C377.337 25.1002 373.837 24.4002 369.77 24.4002H341.77L352.47 13.8002V68.6002ZM438.025 36.1002H464.225C467.158 36.1002 469.425 35.4335 471.025 34.1002C472.691 32.7669 473.525 30.8335 473.525 28.3002C473.525 25.7669 472.691 23.8335 471.025 22.5002C469.425 21.1669 467.158 20.5002 464.225 20.5002H434.725L445.225 9.70019V78.7002H421.925V3.70019H467.725C473.525 3.70019 478.625 4.73352 483.025 6.80019C487.425 8.86686 490.858 11.7335 493.325 15.4002C495.791 19.0669 497.025 23.3669 497.025 28.3002C497.025 33.1002 495.791 37.3669 493.325 41.1002C490.858 44.7669 487.425 47.6335 483.025 49.7002C478.625 51.7002 473.525 52.7002 467.725 52.7002H438.025V36.1002ZM448.025 43.6002H473.925L499.725 78.7002H473.025L448.025 43.6002ZM548.472 80.4002C539.472 80.4002 531.572 78.7669 524.772 75.5002C518.038 72.2335 512.772 67.6669 508.972 61.8002C505.238 55.9335 503.372 49.0669 503.372 41.2002C503.372 33.3335 505.238 26.4669 508.972 20.6002C512.772 14.7335 518.038 10.1669 524.772 6.90019C531.572 3.63353 539.472 2.00019 548.472 2.00019C557.472 2.00019 565.338 3.63353 572.072 6.90019C578.872 10.1669 584.138 14.7335 587.872 20.6002C591.672 26.4669 593.572 33.3335 593.572 41.2002C593.572 49.0669 591.672 55.9335 587.872 61.8002C584.138 67.6669 578.872 72.2335 572.072 75.5002C565.338 78.7669 557.472 80.4002 548.472 80.4002ZM548.472 59.7002C552.938 59.7002 556.772 58.9669 559.972 57.5002C563.238 55.9669 565.738 53.8335 567.472 51.1002C569.205 48.3002 570.072 45.0002 570.072 41.2002C570.072 37.4002 569.205 34.1335 567.472 31.4002C565.738 28.6002 563.238 26.4669 559.972 25.0002C556.772 23.4669 552.938 22.7002 548.472 22.7002C544.005 22.7002 540.138 23.4669 536.872 25.0002C533.672 26.4669 531.205 28.6002 529.472 31.4002C527.738 34.1335 526.872 37.4002 526.872 41.2002C526.872 45.0002 527.738 48.3002 529.472 51.1002C531.205 53.8335 533.672 55.9669 536.872 57.5002C540.138 58.9669 544.005 59.7002 548.472 59.7002ZM625.744 3.70019V68.4002L615.244 58.0002H671.144V78.7002H602.444V3.70019H625.744ZM701.99 3.70019V68.4002L691.49 58.0002H747.39V78.7002H678.69V3.70019H701.99ZM820.437 33.0002V49.4002H764.737V33.0002H820.437ZM780.637 41.2002L775.937 70.2002L766.837 60.1002H823.937V78.7002H752.837L758.437 41.2002L752.837 3.70019H823.437V22.3002H766.837L775.937 12.2002L780.637 41.2002ZM850.31 36.1002H876.51C879.443 36.1002 881.71 35.4335 883.31 34.1002C884.977 32.7669 885.81 30.8335 885.81 28.3002C885.81 25.7669 884.977 23.8335 883.31 22.5002C881.71 21.1669 879.443 20.5002 876.51 20.5002H847.01L857.51 9.70019V78.7002H834.21V3.70019H880.01C885.81 3.70019 890.91 4.73352 895.31 6.80019C899.71 8.86686 903.143 11.7335 905.61 15.4002C908.077 19.0669 909.31 23.3669 909.31 28.3002C909.31 33.1002 908.077 37.3669 905.61 41.1002C903.143 44.7669 899.71 47.6335 895.31 49.7002C890.91 51.7002 885.81 52.7002 880.01 52.7002H850.31V36.1002ZM860.31 43.6002H886.21L912.01 78.7002H885.31L860.31 43.6002Z"/>
</mask>
<path d="M2.05215 54.1002H25.6521C25.9188 55.8335 26.7522 57.3669 28.1522 58.7002C29.6188 59.9669 31.5855 60.9669 34.0521 61.7002C36.5188 62.3669 39.4188 62.7002 42.7522 62.7002C47.3522 62.7002 50.9188 62.1669 53.4521 61.1002C56.0522 60.0335 57.3522 58.4002 57.3522 56.2002C57.3522 54.6669 56.6188 53.4335 55.1522 52.5002C53.6855 51.5002 50.7855 50.8335 46.4522 50.5002L33.2522 49.4002C22.4521 48.6002 14.6188 46.2669 9.75215 42.4002C4.95215 38.4669 2.55215 33.2002 2.55215 26.6002C2.55215 21.2002 4.11882 16.7002 7.25215 13.1002C10.3855 9.43353 14.7521 6.66686 20.3521 4.80019C25.9521 2.93353 32.5521 2.00019 40.1522 2.00019C47.4855 2.00019 53.9855 3.03353 59.6522 5.10019C65.3855 7.16686 69.9188 10.1002 73.2522 13.9002C76.6522 17.6335 78.5188 22.0002 78.8522 27.0002H55.2522C54.9855 25.5335 54.2188 24.2669 52.9522 23.2002C51.7521 22.0669 50.0188 21.2002 47.7522 20.6002C45.4855 20.0002 42.7855 19.7002 39.6522 19.7002C35.5188 19.7002 32.2188 20.2002 29.7522 21.2002C27.3521 22.2002 26.1521 23.7002 26.1521 25.7002C26.1521 27.1669 26.8521 28.3669 28.2521 29.3002C29.7188 30.2335 32.3855 30.8669 36.2522 31.2002L50.7521 32.4002C57.9522 32.9335 63.7522 34.0669 68.1522 35.8002C72.6188 37.4669 75.8522 39.7669 77.8522 42.7002C79.8522 45.5669 80.8522 49.2002 80.8522 53.6002C80.8522 58.9335 79.2522 63.6335 76.0522 67.7002C72.8522 71.7002 68.3522 74.8335 62.5522 77.1002C56.8188 79.3002 50.0855 80.4002 42.3521 80.4002C34.4188 80.4002 27.4522 79.3002 21.4521 77.1002C15.4521 74.9002 10.7521 71.8335 7.35215 67.9002C3.95215 63.9002 2.18548 59.3002 2.05215 54.1002ZM132.594 3.70019C139.128 3.70019 144.728 4.80019 149.394 7.00019C154.128 9.20019 157.728 12.3002 160.194 16.3002C162.661 20.2335 163.894 24.9002 163.894 30.3002C163.894 35.6335 162.661 40.3002 160.194 44.3002C157.728 48.3002 154.128 51.4002 149.394 53.6002C144.728 55.8002 139.128 56.9002 132.594 56.9002H100.494V38.5002H131.094C134.028 38.5002 136.294 37.7669 137.894 36.3002C139.561 34.8335 140.394 32.8335 140.394 30.3002C140.394 27.6335 139.561 25.6002 137.894 24.2002C136.294 22.8002 134.028 22.1002 131.094 22.1002H102.494L112.994 11.5002V78.7002H89.6943V3.70019H132.594ZM236.323 33.0002V49.4002H180.623V33.0002H236.323ZM196.523 41.2002L191.823 70.2002L182.723 60.1002H239.823V78.7002H168.723L174.323 41.2002L168.723 3.70019H239.323V22.3002H182.723L191.823 12.2002L196.523 41.2002ZM315.597 33.0002V49.4002H259.897V33.0002H315.597ZM275.797 41.2002L271.097 70.2002L261.997 60.1002H319.097V78.7002H247.997L253.597 41.2002L247.997 3.70019H318.597V22.3002H261.997L271.097 12.2002L275.797 41.2002ZM367.97 3.70019C376.97 3.70019 384.837 5.26686 391.57 8.40019C398.37 11.4669 403.637 15.8002 407.37 21.4002C411.17 27.0002 413.07 33.6002 413.07 41.2002C413.07 48.7335 411.17 55.3335 407.37 61.0002C403.637 66.6002 398.37 70.9669 391.57 74.1002C384.837 77.1669 376.97 78.7002 367.97 78.7002H329.37V3.70019H367.97ZM352.47 68.6002L341.77 58.0002H369.77C373.837 58.0002 377.337 57.3335 380.27 56.0002C383.27 54.6002 385.57 52.6335 387.17 50.1002C388.77 47.5669 389.57 44.6002 389.57 41.2002C389.57 37.7335 388.77 34.7669 387.17 32.3002C385.57 29.7669 383.27 27.8335 380.27 26.5002C377.337 25.1002 373.837 24.4002 369.77 24.4002H341.77L352.47 13.8002V68.6002ZM438.025 36.1002H464.225C467.158 36.1002 469.425 35.4335 471.025 34.1002C472.691 32.7669 473.525 30.8335 473.525 28.3002C473.525 25.7669 472.691 23.8335 471.025 22.5002C469.425 21.1669 467.158 20.5002 464.225 20.5002H434.725L445.225 9.70019V78.7002H421.925V3.70019H467.725C473.525 3.70019 478.625 4.73352 483.025 6.80019C487.425 8.86686 490.858 11.7335 493.325 15.4002C495.791 19.0669 497.025 23.3669 497.025 28.3002C497.025 33.1002 495.791 37.3669 493.325 41.1002C490.858 44.7669 487.425 47.6335 483.025 49.7002C478.625 51.7002 473.525 52.7002 467.725 52.7002H438.025V36.1002ZM448.025 43.6002H473.925L499.725 78.7002H473.025L448.025 43.6002ZM548.472 80.4002C539.472 80.4002 531.572 78.7669 524.772 75.5002C518.038 72.2335 512.772 67.6669 508.972 61.8002C505.238 55.9335 503.372 49.0669 503.372 41.2002C503.372 33.3335 505.238 26.4669 508.972 20.6002C512.772 14.7335 518.038 10.1669 524.772 6.90019C531.572 3.63353 539.472 2.00019 548.472 2.00019C557.472 2.00019 565.338 3.63353 572.072 6.90019C578.872 10.1669 584.138 14.7335 587.872 20.6002C591.672 26.4669 593.572 33.3335 593.572 41.2002C593.572 49.0669 591.672 55.9335 587.872 61.8002C584.138 67.6669 578.872 72.2335 572.072 75.5002C565.338 78.7669 557.472 80.4002 548.472 80.4002ZM548.472 59.7002C552.938 59.7002 556.772 58.9669 559.972 57.5002C563.238 55.9669 565.738 53.8335 567.472 51.1002C569.205 48.3002 570.072 45.0002 570.072 41.2002C570.072 37.4002 569.205 34.1335 567.472 31.4002C565.738 28.6002 563.238 26.4669 559.972 25.0002C556.772 23.4669 552.938 22.7002 548.472 22.7002C544.005 22.7002 540.138 23.4669 536.872 25.0002C533.672 26.4669 531.205 28.6002 529.472 31.4002C527.738 34.1335 526.872 37.4002 526.872 41.2002C526.872 45.0002 527.738 48.3002 529.472 51.1002C531.205 53.8335 533.672 55.9669 536.872 57.5002C540.138 58.9669 544.005 59.7002 548.472 59.7002ZM625.744 3.70019V68.4002L615.244 58.0002H671.144V78.7002H602.444V3.70019H625.744ZM701.99 3.70019V68.4002L691.49 58.0002H747.39V78.7002H678.69V3.70019H701.99ZM820.437 33.0002V49.4002H764.737V33.0002H820.437ZM780.637 41.2002L775.937 70.2002L766.837 60.1002H823.937V78.7002H752.837L758.437 41.2002L752.837 3.70019H823.437V22.3002H766.837L775.937 12.2002L780.637 41.2002ZM850.31 36.1002H876.51C879.443 36.1002 881.71 35.4335 883.31 34.1002C884.977 32.7669 885.81 30.8335 885.81 28.3002C885.81 25.7669 884.977 23.8335 883.31 22.5002C881.71 21.1669 879.443 20.5002 876.51 20.5002H847.01L857.51 9.70019V78.7002H834.21V3.70019H880.01C885.81 3.70019 890.91 4.73352 895.31 6.80019C899.71 8.86686 903.143 11.7335 905.61 15.4002C908.077 19.0669 909.31 23.3669 909.31 28.3002C909.31 33.1002 908.077 37.3669 905.61 41.1002C903.143 44.7669 899.71 47.6335 895.31 49.7002C890.91 51.7002 885.81 52.7002 880.01 52.7002H850.31V36.1002ZM860.31 43.6002H886.21L912.01 78.7002H885.31L860.31 43.6002Z" fill="black" fill-opacity="0.4"/>
<path d="M2.05215 54.1002V52.1002H0.000209237L0.0528058 54.1515L2.05215 54.1002ZM25.6521 54.1002L27.6289 53.7961L27.368 52.1002H25.6521V54.1002ZM28.1522 58.7002L26.7728 60.1485L26.8081 60.182L26.8449 60.2138L28.1522 58.7002ZM34.0521 61.7002L33.4822 63.6173L33.5062 63.6244L33.5303 63.6309L34.0521 61.7002ZM53.4521 61.1002L52.693 59.2499L52.6845 59.2534L52.676 59.2569L53.4521 61.1002ZM55.1522 52.5002L54.0255 54.1526L54.0517 54.1705L54.0784 54.1875L55.1522 52.5002ZM46.4522 50.5002L46.2861 52.4933L46.2988 52.4943L46.4522 50.5002ZM33.2522 49.4002L33.4182 47.4071L33.4091 47.4063L33.3999 47.4057L33.2522 49.4002ZM9.75215 42.4002L8.4845 43.9472L8.49618 43.9567L8.508 43.9661L9.75215 42.4002ZM7.25215 13.1002L8.76076 14.4132L8.76672 14.4064L8.77261 14.3995L7.25215 13.1002ZM20.3521 4.80019L20.9846 6.69756L20.9846 6.69756L20.3521 4.80019ZM59.6522 5.10019L58.9669 6.97914L58.9739 6.98168L59.6522 5.10019ZM73.2522 13.9002L71.7486 15.2191L71.7609 15.2331L71.7735 15.2469L73.2522 13.9002ZM78.8522 27.0002V29.0002H80.9899L80.8477 26.8672L78.8522 27.0002ZM55.2522 27.0002L53.2844 27.358L53.583 29.0002H55.2522V27.0002ZM52.9522 23.2002L51.5789 24.6542L51.6203 24.6933L51.6639 24.73L52.9522 23.2002ZM47.7522 20.6002L48.2639 18.6668L48.2639 18.6668L47.7522 20.6002ZM29.7522 21.2002L29.0007 19.3467L28.9918 19.3503L28.9829 19.354L29.7522 21.2002ZM28.2521 29.3002L27.1427 30.9643L27.1605 30.9761L27.1784 30.9875L28.2521 29.3002ZM36.2522 31.2002L36.0804 33.1928L36.0872 33.1934L36.2522 31.2002ZM50.7521 32.4002L50.5872 34.3934L50.5958 34.3941L50.6044 34.3947L50.7521 32.4002ZM68.1522 35.8002L67.4191 37.661L67.436 37.6677L67.453 37.674L68.1522 35.8002ZM77.8522 42.7002L76.1997 43.8269L76.2057 43.8357L76.2119 43.8446L77.8522 42.7002ZM76.0522 67.7002L77.6139 68.9496L77.6189 68.9433L77.6239 68.937L76.0522 67.7002ZM62.5522 77.1002L63.2687 78.9675L63.2801 78.963L62.5522 77.1002ZM21.4521 77.1002L20.7636 78.9779L20.7636 78.9779L21.4521 77.1002ZM7.35215 67.9002L5.82827 69.1955L5.83365 69.2018L5.83908 69.2081L7.35215 67.9002ZM2.05215 54.1002V56.1002H25.6521V54.1002V52.1002H2.05215V54.1002ZM25.6521 54.1002L23.6754 54.4043C24.0162 56.6197 25.0874 58.5433 26.7728 60.1485L28.1522 58.7002L29.5315 57.2519C28.4169 56.1904 27.8214 55.0474 27.6289 53.7961L25.6521 54.1002ZM28.1522 58.7002L26.8449 60.2138C28.5841 61.7158 30.8287 62.8284 33.4822 63.6173L34.0521 61.7002L34.6221 59.7831C32.3423 59.1054 30.6536 58.2179 29.4594 57.1865L28.1522 58.7002ZM34.0521 61.7002L33.5303 63.6309C36.2097 64.3551 39.2929 64.7002 42.7522 64.7002V62.7002V60.7002C39.5447 60.7002 36.828 60.3787 34.574 59.7695L34.0521 61.7002ZM42.7522 62.7002V64.7002C47.4631 64.7002 51.3379 64.1605 54.2283 62.9435L53.4521 61.1002L52.676 59.2569C50.4997 60.1733 47.2412 60.7002 42.7522 60.7002V62.7002ZM53.4521 61.1002L54.2113 62.9505C55.722 62.3307 57.0184 61.4811 57.942 60.3207C58.8897 59.13 59.3522 57.7264 59.3522 56.2002H57.3522H55.3522C55.3522 56.874 55.1646 57.387 54.8123 57.8297C54.4359 58.3027 53.7823 58.803 52.693 59.2499L53.4521 61.1002ZM57.3522 56.2002H59.3522C59.3522 53.8817 58.1784 52.0554 56.2259 50.8129L55.1522 52.5002L54.0784 54.1875C55.0592 54.8117 55.3522 55.452 55.3522 56.2002H57.3522ZM55.1522 52.5002L56.2788 50.8477C55.2466 50.1439 53.8763 49.6576 52.3252 49.301C50.7452 48.9378 48.8306 48.6772 46.6055 48.5061L46.4522 50.5002L46.2988 52.4943C48.407 52.6565 50.1091 52.8959 51.4291 53.1994C52.778 53.5095 53.5911 53.8565 54.0255 54.1526L55.1522 52.5002ZM46.4522 50.5002L46.6182 48.5071L33.4182 47.4071L33.2522 49.4002L33.0861 51.3933L46.2861 52.4933L46.4522 50.5002ZM33.2522 49.4002L33.3999 47.4057C22.7377 46.6159 15.3918 44.3266 10.9963 40.8343L9.75215 42.4002L8.508 43.9661C13.8458 48.2071 22.1666 50.5845 33.1044 51.3947L33.2522 49.4002ZM9.75215 42.4002L11.0198 40.8532C6.71612 37.3266 4.55215 32.6445 4.55215 26.6002H2.55215H0.552149C0.552149 33.7559 3.18818 39.6071 8.4845 43.9472L9.75215 42.4002ZM2.55215 26.6002H4.55215C4.55215 21.6151 5.98609 17.6012 8.76076 14.4132L7.25215 13.1002L5.74354 11.7871C2.25154 15.7992 0.552149 20.7853 0.552149 26.6002H2.55215ZM7.25215 13.1002L8.77261 14.3995C11.6221 11.065 15.6524 8.47497 20.9846 6.69756L20.3521 4.80019L19.7197 2.90283C13.8519 4.85875 9.14891 7.80201 5.73169 11.8009L7.25215 13.1002ZM20.3521 4.80019L20.9846 6.69756C26.3317 4.9152 32.7086 4.00019 40.1522 4.00019V2.00019V0.000193357C32.3957 0.000193357 25.5726 0.951857 19.7197 2.90283L20.3521 4.80019ZM40.1522 2.00019V4.00019C47.3006 4.00019 53.5614 5.00774 58.9669 6.97913L59.6522 5.10019L60.3374 3.22125C54.4095 1.05932 47.6704 0.000193357 40.1522 0.000193357V2.00019ZM59.6522 5.10019L58.9739 6.98168C64.4542 8.95713 68.68 11.7208 71.7486 15.2191L73.2522 13.9002L74.7557 12.5813C71.1576 8.47955 66.3168 5.37659 60.3304 3.21869L59.6522 5.10019ZM73.2522 13.9002L71.7735 15.2469C74.8714 18.6485 76.5536 22.5883 76.8566 27.1332L78.8522 27.0002L80.8477 26.8672C80.484 21.412 78.4329 16.6185 74.7308 12.5535L73.2522 13.9002ZM78.8522 27.0002V25.0002H55.2522V27.0002V29.0002H78.8522V27.0002ZM55.2522 27.0002L57.2199 26.6424C56.8606 24.6666 55.821 23.0014 54.2404 21.6704L52.9522 23.2002L51.6639 24.73C52.6167 25.5324 53.1103 26.4004 53.2844 27.358L55.2522 27.0002ZM52.9522 23.2002L54.3254 21.7462C52.8021 20.3075 50.7257 19.3184 48.2639 18.6668L47.7522 20.6002L47.2404 22.5336C49.312 23.082 50.7022 23.8262 51.5789 24.6542L52.9522 23.2002ZM47.7522 20.6002L48.2639 18.6668C45.7851 18.0106 42.9043 17.7002 39.6522 17.7002V19.7002V21.7002C42.6667 21.7002 45.1859 21.9898 47.2404 22.5336L47.7522 20.6002ZM39.6522 19.7002V17.7002C35.3883 17.7002 31.8008 18.2115 29.0007 19.3467L29.7522 21.2002L30.5036 23.0537C32.6368 22.1888 35.6493 21.7002 39.6522 21.7002V19.7002ZM29.7522 21.2002L28.9829 19.354C27.5778 19.9395 26.3614 20.7371 25.4904 21.8258C24.5944 22.9459 24.1521 24.2662 24.1521 25.7002H26.1521H28.1521C28.1521 25.1341 28.3099 24.7045 28.6139 24.3246C28.9429 23.9133 29.5265 23.4609 30.5214 23.0463L29.7522 21.2002ZM26.1521 25.7002H24.1521C24.1521 27.9427 25.2818 29.7237 27.1427 30.9643L28.2521 29.3002L29.3615 27.6361C28.4225 27.0101 28.1521 26.391 28.1521 25.7002H26.1521ZM28.2521 29.3002L27.1784 30.9875C29.0913 32.2048 32.1958 32.8579 36.0804 33.1928L36.2522 31.2002L36.4239 29.2076C32.5752 28.8758 30.3463 28.2622 29.3259 27.6129L28.2521 29.3002ZM36.2522 31.2002L36.0872 33.1934L50.5872 34.3934L50.7521 32.4002L50.9171 30.407L36.4171 29.207L36.2522 31.2002ZM50.7521 32.4002L50.6044 34.3947C57.6976 34.9202 63.2775 36.0295 67.4191 37.661L68.1522 35.8002L68.8852 33.9394C64.2268 32.1043 58.2067 30.9469 50.8999 30.4057L50.7521 32.4002ZM68.1522 35.8002L67.453 37.674C71.6629 39.2449 74.5004 41.3346 76.1997 43.8269L77.8522 42.7002L79.5046 41.5735C77.2039 38.1991 73.5747 35.6888 68.8513 33.9264L68.1522 35.8002ZM77.8522 42.7002L76.2119 43.8446C77.9234 46.2978 78.8522 49.5031 78.8522 53.6002H80.8522H82.8522C82.8522 48.8973 81.7809 44.836 79.4924 41.5558L77.8522 42.7002ZM80.8522 53.6002H78.8522C78.8522 58.4998 77.3939 62.7608 74.4804 66.4634L76.0522 67.7002L77.6239 68.937C81.1104 64.5062 82.8522 59.3673 82.8522 53.6002H80.8522ZM76.0522 67.7002L74.4904 66.4508C71.5525 70.1233 67.3675 73.071 61.8242 75.2374L62.5522 77.1002L63.2801 78.963C69.3368 76.596 74.1519 73.2771 77.6139 68.9496L76.0522 67.7002ZM62.5522 77.1002L61.8356 75.2329C56.3817 77.3257 49.9015 78.4002 42.3521 78.4002V80.4002V82.4002C50.2695 82.4002 57.2559 81.2747 63.2687 78.9674L62.5522 77.1002ZM42.3521 80.4002V78.4002C34.5991 78.4002 27.8741 77.3247 22.1407 75.2224L21.4521 77.1002L20.7636 78.9779C27.0302 81.2757 34.2385 82.4002 42.3521 82.4002V80.4002ZM21.4521 77.1002L22.1407 75.2224C16.3871 73.1128 11.9977 70.2162 8.86522 66.5923L7.35215 67.9002L5.83908 69.2081C9.50656 73.4509 14.5172 76.6876 20.7636 78.9779L21.4521 77.1002ZM7.35215 67.9002L8.87603 66.6049C5.769 62.9496 4.17299 58.7875 4.05149 54.0489L2.05215 54.1002L0.0528058 54.1515C0.19797 59.8129 2.1353 64.8508 5.82827 69.1955L7.35215 67.9002ZM149.394 7.00019L148.541 8.80927L148.551 8.81386L149.394 7.00019ZM160.194 16.3002L158.492 17.35L158.496 17.3564L158.5 17.3628L160.194 16.3002ZM149.394 53.6002L148.551 51.7865L148.542 51.7911L149.394 53.6002ZM100.494 56.9002H98.4943V58.9002H100.494V56.9002ZM100.494 38.5002V36.5002H98.4943V38.5002H100.494ZM137.894 36.3002L136.573 34.7988L136.558 34.8122L136.543 34.8259L137.894 36.3002ZM137.894 24.2002L136.577 25.7053L136.593 25.7186L136.608 25.7316L137.894 24.2002ZM102.494 22.1002L101.073 20.6927L97.6981 24.1002H102.494V22.1002ZM112.994 11.5002H114.994V6.63921L111.573 10.0927L112.994 11.5002ZM112.994 78.7002V80.7002H114.994V78.7002H112.994ZM89.6943 78.7002H87.6943V80.7002H89.6943V78.7002ZM89.6943 3.70019V1.70019H87.6943V3.70019H89.6943ZM132.594 3.70019V5.70019C138.909 5.70019 144.203 6.76383 148.542 8.80925L149.394 7.00019L150.247 5.19114C145.253 2.83655 139.346 1.70019 132.594 1.70019V3.70019ZM149.394 7.00019L148.551 8.81386C152.97 10.8678 156.253 13.7195 158.492 17.35L160.194 16.3002L161.897 15.2504C159.202 10.8808 155.285 7.5326 150.237 5.18653L149.394 7.00019ZM160.194 16.3002L158.5 17.3628C160.736 20.9286 161.894 25.2136 161.894 30.3002H163.894H165.894C165.894 24.5867 164.586 19.5384 161.889 15.2376L160.194 16.3002ZM163.894 30.3002H161.894C161.894 35.314 160.739 39.6069 158.492 43.2504L160.194 44.3002L161.897 45.35C164.583 40.9935 165.894 35.9531 165.894 30.3002H163.894ZM160.194 44.3002L158.492 43.2504C156.253 46.8808 152.97 49.7326 148.551 51.7865L149.394 53.6002L150.237 55.4139C155.285 53.0678 159.202 49.7195 161.897 45.35L160.194 44.3002ZM149.394 53.6002L148.542 51.7911C144.203 53.8366 138.909 54.9002 132.594 54.9002V56.9002V58.9002C139.346 58.9002 145.253 57.7638 150.247 55.4092L149.394 53.6002ZM132.594 56.9002V54.9002H100.494V56.9002V58.9002H132.594V56.9002ZM100.494 56.9002H102.494V38.5002H100.494H98.4943V56.9002H100.494ZM100.494 38.5002V40.5002H131.094V38.5002V36.5002H100.494V38.5002ZM131.094 38.5002V40.5002C134.35 40.5002 137.164 39.6831 139.246 37.7745L137.894 36.3002L136.543 34.8259C135.425 35.8506 133.706 36.5002 131.094 36.5002V38.5002ZM137.894 36.3002L139.216 37.8016C141.377 35.8996 142.394 33.3183 142.394 30.3002H140.394H138.394C138.394 32.3488 137.745 33.7675 136.573 34.7988L137.894 36.3002ZM140.394 30.3002H142.394C142.394 27.1883 141.401 24.5334 139.181 22.6688L137.894 24.2002L136.608 25.7316C137.722 26.667 138.394 28.0788 138.394 30.3002H140.394ZM137.894 24.2002L139.211 22.695C137.129 20.8727 134.328 20.1002 131.094 20.1002V22.1002V24.1002C133.727 24.1002 135.46 24.7277 136.577 25.7053L137.894 24.2002ZM131.094 22.1002V20.1002H102.494V22.1002V24.1002H131.094V22.1002ZM102.494 22.1002L103.915 23.5077L114.415 12.9077L112.994 11.5002L111.573 10.0927L101.073 20.6927L102.494 22.1002ZM112.994 11.5002H110.994V78.7002H112.994H114.994V11.5002H112.994ZM112.994 78.7002V76.7002H89.6943V78.7002V80.7002H112.994V78.7002ZM89.6943 78.7002H91.6943V3.70019H89.6943H87.6943V78.7002H89.6943ZM89.6943 3.70019V5.70019H132.594V3.70019V1.70019H89.6943V3.70019ZM236.323 33.0002H238.323V31.0002H236.323V33.0002ZM236.323 49.4002V51.4002H238.323V49.4002H236.323ZM180.623 49.4002H178.623V51.4002H180.623V49.4002ZM180.623 33.0002V31.0002H178.623V33.0002H180.623ZM196.523 41.2002L198.497 41.5202L198.549 41.2002L198.497 40.8802L196.523 41.2002ZM191.823 70.2002L190.337 71.5389L193.13 74.6385L193.797 70.5202L191.823 70.2002ZM182.723 60.1002V58.1002H178.229L181.237 61.4389L182.723 60.1002ZM239.823 60.1002H241.823V58.1002H239.823V60.1002ZM239.823 78.7002V80.7002H241.823V78.7002H239.823ZM168.723 78.7002L166.745 78.4048L166.402 80.7002H168.723V78.7002ZM174.323 41.2002L176.301 41.4956L176.345 41.2002L176.301 40.9048L174.323 41.2002ZM168.723 3.70019V1.70019H166.402L166.745 3.99558L168.723 3.70019ZM239.323 3.70019H241.323V1.70019H239.323V3.70019ZM239.323 22.3002V24.3002H241.323V22.3002H239.323ZM182.723 22.3002L181.237 20.9615L178.229 24.3002H182.723V22.3002ZM191.823 12.2002L193.797 11.8802L193.13 7.76192L190.337 10.8615L191.823 12.2002ZM236.323 33.0002H234.323V49.4002H236.323H238.323V33.0002H236.323ZM236.323 49.4002V47.4002H180.623V49.4002V51.4002H236.323V49.4002ZM180.623 49.4002H182.623V33.0002H180.623H178.623V49.4002H180.623ZM180.623 33.0002V35.0002H236.323V33.0002V31.0002H180.623V33.0002ZM196.523 41.2002L194.549 40.8802L189.849 69.8802L191.823 70.2002L193.797 70.5202L198.497 41.5202L196.523 41.2002ZM191.823 70.2002L193.309 68.8615L184.209 58.7615L182.723 60.1002L181.237 61.4389L190.337 71.5389L191.823 70.2002ZM182.723 60.1002V62.1002H239.823V60.1002V58.1002H182.723V60.1002ZM239.823 60.1002H237.823V78.7002H239.823H241.823V60.1002H239.823ZM239.823 78.7002V76.7002H168.723V78.7002V80.7002H239.823V78.7002ZM168.723 78.7002L170.701 78.9956L176.301 41.4956L174.323 41.2002L172.345 40.9048L166.745 78.4048L168.723 78.7002ZM174.323 41.2002L176.301 40.9048L170.701 3.4048L168.723 3.70019L166.745 3.99558L172.345 41.4956L174.323 41.2002ZM168.723 3.70019V5.70019H239.323V3.70019V1.70019H168.723V3.70019ZM239.323 3.70019H237.323V22.3002H239.323H241.323V3.70019H239.323ZM239.323 22.3002V20.3002H182.723V22.3002V24.3002H239.323V22.3002ZM182.723 22.3002L184.209 23.6389L193.309 13.5389L191.823 12.2002L190.337 10.8615L181.237 20.9615L182.723 22.3002ZM191.823 12.2002L189.849 12.5202L194.549 41.5202L196.523 41.2002L198.497 40.8802L193.797 11.8802L191.823 12.2002ZM315.597 33.0002H317.597V31.0002H315.597V33.0002ZM315.597 49.4002V51.4002H317.597V49.4002H315.597ZM259.897 49.4002H257.897V51.4002H259.897V49.4002ZM259.897 33.0002V31.0002H257.897V33.0002H259.897ZM275.797 41.2002L277.771 41.5202L277.823 41.2002L277.771 40.8802L275.797 41.2002ZM271.097 70.2002L269.611 71.5389L272.403 74.6385L273.071 70.5202L271.097 70.2002ZM261.997 60.1002V58.1002H257.503L260.511 61.4389L261.997 60.1002ZM319.097 60.1002H321.097V58.1002H319.097V60.1002ZM319.097 78.7002V80.7002H321.097V78.7002H319.097ZM247.997 78.7002L246.019 78.4048L245.676 80.7002H247.997V78.7002ZM253.597 41.2002L255.575 41.4956L255.619 41.2002L255.575 40.9048L253.597 41.2002ZM247.997 3.70019V1.70019H245.676L246.019 3.99558L247.997 3.70019ZM318.597 3.70019H320.597V1.70019H318.597V3.70019ZM318.597 22.3002V24.3002H320.597V22.3002H318.597ZM261.997 22.3002L260.511 20.9615L257.503 24.3002H261.997V22.3002ZM271.097 12.2002L273.071 11.8802L272.403 7.76192L269.611 10.8615L271.097 12.2002ZM315.597 33.0002H313.597V49.4002H315.597H317.597V33.0002H315.597ZM315.597 49.4002V47.4002H259.897V49.4002V51.4002H315.597V49.4002ZM259.897 49.4002H261.897V33.0002H259.897H257.897V49.4002H259.897ZM259.897 33.0002V35.0002H315.597V33.0002V31.0002H259.897V33.0002ZM275.797 41.2002L273.822 40.8802L269.122 69.8802L271.097 70.2002L273.071 70.5202L277.771 41.5202L275.797 41.2002ZM271.097 70.2002L272.583 68.8615L263.483 58.7615L261.997 60.1002L260.511 61.4389L269.611 71.5389L271.097 70.2002ZM261.997 60.1002V62.1002H319.097V60.1002V58.1002H261.997V60.1002ZM319.097 60.1002H317.097V78.7002H319.097H321.097V60.1002H319.097ZM319.097 78.7002V76.7002H247.997V78.7002V80.7002H319.097V78.7002ZM247.997 78.7002L249.975 78.9956L255.575 41.4956L253.597 41.2002L251.619 40.9048L246.019 78.4048L247.997 78.7002ZM253.597 41.2002L255.575 40.9048L249.975 3.4048L247.997 3.70019L246.019 3.99558L251.619 41.4956L253.597 41.2002ZM247.997 3.70019V5.70019H318.597V3.70019V1.70019H247.997V3.70019ZM318.597 3.70019H316.597V22.3002H318.597H320.597V3.70019H318.597ZM318.597 22.3002V20.3002H261.997V22.3002V24.3002H318.597V22.3002ZM261.997 22.3002L263.483 23.6389L272.583 13.5389L271.097 12.2002L269.611 10.8615L260.511 20.9615L261.997 22.3002ZM271.097 12.2002L269.122 12.5202L273.822 41.5202L275.797 41.2002L277.771 40.8802L273.071 11.8802L271.097 12.2002ZM391.57 8.40019L390.726 10.2135L390.737 10.2185L390.748 10.2234L391.57 8.40019ZM407.37 21.4002L405.706 22.5096L405.711 22.5164L405.715 22.5232L407.37 21.4002ZM407.37 61.0002L405.709 59.8863L405.706 59.8908L407.37 61.0002ZM391.57 74.1002L392.399 75.9203L392.407 75.9166L391.57 74.1002ZM329.37 78.7002H327.37V80.7002H329.37V78.7002ZM329.37 3.70019V1.70019H327.37V3.70019H329.37ZM352.47 68.6002L351.063 70.021L354.47 73.3967V68.6002H352.47ZM341.77 58.0002V56.0002H336.909L340.363 59.421L341.77 58.0002ZM380.27 56.0002L381.098 57.8209L381.107 57.8168L381.116 57.8126L380.27 56.0002ZM387.17 50.1002L385.479 49.0322L385.479 49.0322L387.17 50.1002ZM387.17 32.3002L385.479 33.3682L385.486 33.3784L385.492 33.3886L387.17 32.3002ZM380.27 26.5002L379.409 28.3052L379.433 28.3168L379.458 28.3278L380.27 26.5002ZM341.77 24.4002L340.363 22.9794L336.909 26.4002H341.77V24.4002ZM352.47 13.8002H354.47V9.00364L351.063 12.3794L352.47 13.8002ZM367.97 3.70019V5.70019C376.739 5.70019 384.307 7.22638 390.726 10.2135L391.57 8.40019L392.414 6.58691C385.366 3.30734 377.201 1.70019 367.97 1.70019V3.70019ZM391.57 8.40019L390.748 10.2234C397.244 13.153 402.203 17.255 405.706 22.5096L407.37 21.4002L409.034 20.2908C405.071 14.3454 399.496 9.78068 392.392 6.57702L391.57 8.40019ZM407.37 21.4002L405.715 22.5232C409.263 27.7519 411.07 33.9495 411.07 41.2002H413.07H415.07C415.07 33.2508 413.077 26.2484 409.025 20.2772L407.37 21.4002ZM413.07 41.2002H411.07C411.07 48.3798 409.265 54.5831 405.709 59.8863L407.37 61.0002L409.031 62.1141C413.075 56.084 415.07 49.0872 415.07 41.2002H413.07ZM407.37 61.0002L405.706 59.8908C402.2 65.1494 397.236 69.2872 390.733 72.2838L391.57 74.1002L392.407 75.9166C399.504 72.6465 405.073 68.051 409.034 62.1096L407.37 61.0002ZM391.57 74.1002L390.741 72.2801C384.318 75.2054 376.745 76.7002 367.97 76.7002V78.7002V80.7002C377.195 80.7002 385.355 79.1283 392.399 75.9203L391.57 74.1002ZM367.97 78.7002V76.7002H329.37V78.7002V80.7002H367.97V78.7002ZM329.37 78.7002H331.37V3.70019H329.37H327.37V78.7002H329.37ZM329.37 3.70019V5.70019H367.97V3.70019V1.70019H329.37V3.70019ZM352.47 68.6002L353.878 67.1794L343.178 56.5794L341.77 58.0002L340.363 59.421L351.063 70.021L352.47 68.6002ZM341.77 58.0002V60.0002H369.77V58.0002V56.0002H341.77V58.0002ZM369.77 58.0002V60.0002C374.05 60.0002 377.846 59.2991 381.098 57.8209L380.27 56.0002L379.443 54.1795C376.828 55.368 373.624 56.0002 369.77 56.0002V58.0002ZM380.27 56.0002L381.116 57.8126C384.425 56.2681 387.035 54.059 388.861 51.1682L387.17 50.1002L385.479 49.0322C384.105 51.2081 382.115 52.9323 379.424 54.1878L380.27 56.0002ZM387.17 50.1002L388.861 51.1682C390.689 48.2737 391.57 44.926 391.57 41.2002H389.57H387.57C387.57 44.2744 386.851 46.86 385.479 49.0322L387.17 50.1002ZM389.57 41.2002H391.57C391.57 37.4176 390.694 34.0569 388.848 31.2118L387.17 32.3002L385.492 33.3886C386.847 35.4768 387.57 38.0494 387.57 41.2002H389.57ZM387.17 32.3002L388.861 31.2322C387.03 28.3324 384.408 26.1506 381.082 24.6726L380.27 26.5002L379.458 28.3278C382.132 29.5165 384.111 31.2013 385.479 33.3682L387.17 32.3002ZM380.27 26.5002L381.132 24.6952C377.87 23.1387 374.062 22.4002 369.77 22.4002V24.4002V26.4002C373.612 26.4002 376.803 27.0616 379.409 28.3052L380.27 26.5002ZM369.77 24.4002V22.4002H341.77V24.4002V26.4002H369.77V24.4002ZM341.77 24.4002L343.178 25.821L353.878 15.221L352.47 13.8002L351.063 12.3794L340.363 22.9794L341.77 24.4002ZM352.47 13.8002H350.47V68.6002H352.47H354.47V13.8002H352.47ZM438.025 36.1002V34.1002H436.025V36.1002H438.025ZM471.025 34.1002L469.775 32.5385L469.76 32.5509L469.744 32.5637L471.025 34.1002ZM471.025 22.5002L469.744 24.0366L469.76 24.0494L469.775 24.0619L471.025 22.5002ZM434.725 20.5002L433.291 19.106L429.991 22.5002H434.725V20.5002ZM445.225 9.70019H447.225V4.77393L443.791 8.30603L445.225 9.70019ZM445.225 78.7002V80.7002H447.225V78.7002H445.225ZM421.925 78.7002H419.925V80.7002H421.925V78.7002ZM421.925 3.70019V1.70019H419.925V3.70019H421.925ZM483.025 6.80019L483.875 4.98993L483.875 4.98993L483.025 6.80019ZM493.325 15.4002L494.984 14.2838L493.325 15.4002ZM493.325 41.1002L494.984 42.2165L494.989 42.2096L494.993 42.2027L493.325 41.1002ZM483.025 49.7002L483.852 51.5209L483.864 51.5158L483.875 51.5105L483.025 49.7002ZM438.025 52.7002H436.025V54.7002H438.025V52.7002ZM448.025 43.6002V41.6002H444.145L446.396 44.7605L448.025 43.6002ZM473.925 43.6002L475.536 42.4157L474.937 41.6002H473.925V43.6002ZM499.725 78.7002V80.7002H503.677L501.336 77.5157L499.725 78.7002ZM473.025 78.7002L471.396 79.8605L471.994 80.7002H473.025V78.7002ZM438.025 36.1002V38.1002H464.225V36.1002V34.1002H438.025V36.1002ZM464.225 36.1002V38.1002C467.437 38.1002 470.224 37.3713 472.305 35.6366L471.025 34.1002L469.744 32.5637C468.626 33.4957 466.879 34.1002 464.225 34.1002V36.1002ZM471.025 34.1002L472.274 35.6619C474.506 33.8764 475.525 31.3145 475.525 28.3002H473.525H471.525C471.525 30.3526 470.877 31.6573 469.775 32.5385L471.025 34.1002ZM473.525 28.3002H475.525C475.525 25.2859 474.506 22.724 472.274 20.9385L471.025 22.5002L469.775 24.0619C470.877 24.9431 471.525 26.2478 471.525 28.3002H473.525ZM471.025 22.5002L472.305 20.9637C470.224 19.2291 467.437 18.5002 464.225 18.5002V20.5002V22.5002C466.879 22.5002 468.626 23.1047 469.744 24.0366L471.025 22.5002ZM464.225 20.5002V18.5002H434.725V20.5002V22.5002H464.225V20.5002ZM434.725 20.5002L436.159 21.8944L446.659 11.0943L445.225 9.70019L443.791 8.30603L433.291 19.106L434.725 20.5002ZM445.225 9.70019H443.225V78.7002H445.225H447.225V9.70019H445.225ZM445.225 78.7002V76.7002H421.925V78.7002V80.7002H445.225V78.7002ZM421.925 78.7002H423.925V3.70019H421.925H419.925V78.7002H421.925ZM421.925 3.70019V5.70019H467.725V3.70019V1.70019H421.925V3.70019ZM467.725 3.70019V5.70019C473.287 5.70019 478.087 6.69056 482.175 8.61045L483.025 6.80019L483.875 4.98993C479.163 2.77649 473.763 1.70019 467.725 1.70019V3.70019ZM483.025 6.80019L482.175 8.61045C486.281 10.5391 489.421 13.1796 491.665 16.5165L493.325 15.4002L494.984 14.2838C492.296 10.2874 488.569 7.19458 483.875 4.98993L483.025 6.80019ZM493.325 15.4002L491.665 16.5165C493.885 19.8155 495.025 23.7165 495.025 28.3002H497.025H499.025C499.025 23.0172 497.698 18.3182 494.984 14.2838L493.325 15.4002ZM497.025 28.3002H495.025C495.025 32.738 493.891 36.6155 491.656 39.9977L493.325 41.1002L494.993 42.2027C497.692 38.1182 499.025 33.4624 499.025 28.3002H497.025ZM493.325 41.1002L491.665 39.9838C489.421 43.3208 486.281 45.9613 482.175 47.8899L483.025 49.7002L483.875 51.5105C488.569 49.3058 492.296 46.213 494.984 42.2165L493.325 41.1002ZM483.025 49.7002L482.197 47.8795C478.104 49.7401 473.295 50.7002 467.725 50.7002V52.7002V54.7002C473.754 54.7002 479.146 53.6603 483.852 51.5209L483.025 49.7002ZM467.725 52.7002V50.7002H438.025V52.7002V54.7002H467.725V52.7002ZM438.025 52.7002H440.025V36.1002H438.025H436.025V52.7002H438.025ZM448.025 43.6002V45.6002H473.925V43.6002V41.6002H448.025V43.6002ZM473.925 43.6002L472.313 44.7847L498.113 79.8847L499.725 78.7002L501.336 77.5157L475.536 42.4157L473.925 43.6002ZM499.725 78.7002V76.7002H473.025V78.7002V80.7002H499.725V78.7002ZM473.025 78.7002L474.654 77.5399L449.654 42.4399L448.025 43.6002L446.396 44.7605L471.396 79.8605L473.025 78.7002ZM524.772 75.5002L523.899 77.2996L523.906 77.303L524.772 75.5002ZM508.972 61.8002L507.284 62.8739L507.289 62.8807L507.293 62.8875L508.972 61.8002ZM508.972 20.6002L507.293 19.5129L507.289 19.5197L507.284 19.5264L508.972 20.6002ZM524.772 6.90019L523.906 5.09741L523.899 5.10077L524.772 6.90019ZM572.072 6.90019L571.199 8.69962L571.206 8.70296L572.072 6.90019ZM587.872 20.6002L586.184 21.6739L586.189 21.6807L586.193 21.6875L587.872 20.6002ZM587.872 61.8002L586.193 60.7129L586.189 60.7197L586.184 60.7264L587.872 61.8002ZM572.072 75.5002L571.206 73.6974L571.199 73.7008L572.072 75.5002ZM559.972 57.5002L560.805 59.3183L560.813 59.3145L560.821 59.3107L559.972 57.5002ZM567.472 51.1002L569.161 52.1713L569.167 52.1621L569.172 52.1529L567.472 51.1002ZM567.472 31.4002L565.771 32.4529L565.777 32.4621L565.783 32.4713L567.472 31.4002ZM559.972 25.0002L559.107 26.8038L559.13 26.8146L559.153 26.8247L559.972 25.0002ZM536.872 25.0002L537.705 26.8183L537.713 26.8145L537.721 26.8107L536.872 25.0002ZM529.472 31.4002L531.161 32.4713L531.167 32.4621L531.172 32.4529L529.472 31.4002ZM529.472 51.1002L527.771 52.1529L527.777 52.1621L527.783 52.1713L529.472 51.1002ZM536.872 57.5002L536.007 59.3038L536.03 59.3146L536.053 59.3247L536.872 57.5002ZM548.472 80.4002V78.4002C539.714 78.4002 532.12 76.8116 525.638 73.6974L524.772 75.5002L523.906 77.303C531.023 80.7221 539.229 82.4002 548.472 82.4002V80.4002ZM524.772 75.5002L525.645 73.7008C519.216 70.5818 514.238 66.2513 510.65 60.7129L508.972 61.8002L507.293 62.8875C511.306 69.0824 516.861 73.8853 523.899 77.2996L524.772 75.5002ZM508.972 61.8002L510.659 60.7264C507.156 55.2214 505.372 48.7378 505.372 41.2002H503.372H501.372C501.372 49.3959 503.321 56.6456 507.284 62.8739L508.972 61.8002ZM503.372 41.2002H505.372C505.372 33.6626 507.156 27.179 510.659 21.6739L508.972 20.6002L507.284 19.5264C503.321 25.7547 501.372 33.0045 501.372 41.2002H503.372ZM508.972 20.6002L510.65 21.6875C514.238 16.149 519.216 11.8186 525.645 8.69961L524.772 6.90019L523.899 5.10077C516.861 8.51511 511.306 13.318 507.293 19.5129L508.972 20.6002ZM524.772 6.90019L525.638 8.70296C532.12 5.58881 539.714 4.00019 548.472 4.00019V2.00019V0.000193357C539.229 0.000193357 531.023 1.67824 523.906 5.09742L524.772 6.90019ZM548.472 2.00019V4.00019C557.23 4.00019 564.787 5.58902 571.199 8.69961L572.072 6.90019L572.945 5.10077C565.89 1.67803 557.714 0.000193357 548.472 0.000193357V2.00019ZM572.072 6.90019L571.206 8.70296C577.699 11.8223 582.668 16.1488 586.184 21.6739L587.872 20.6002L589.559 19.5264C585.608 13.3183 580.044 8.51146 572.938 5.09742L572.072 6.90019ZM587.872 20.6002L586.193 21.6875C589.758 27.1908 591.572 33.6694 591.572 41.2002H593.572H595.572C595.572 32.9976 593.586 25.7429 589.55 19.5129L587.872 20.6002ZM593.572 41.2002H591.572C591.572 48.731 589.758 55.2096 586.193 60.7129L587.872 61.8002L589.55 62.8875C593.586 56.6575 595.572 49.4028 595.572 41.2002H593.572ZM587.872 61.8002L586.184 60.7264C582.668 66.2516 577.699 70.5781 571.206 73.6974L572.072 75.5002L572.938 77.303C580.044 73.8889 585.608 69.0821 589.559 62.8739L587.872 61.8002ZM572.072 75.5002L571.199 73.7008C564.787 76.8114 557.23 78.4002 548.472 78.4002V80.4002V82.4002C557.714 82.4002 565.89 80.7224 572.945 77.2996L572.072 75.5002ZM548.472 59.7002V61.7002C553.151 61.7002 557.283 60.9325 560.805 59.3183L559.972 57.5002L559.138 55.6821C556.26 57.0012 552.725 57.7002 548.472 57.7002V59.7002ZM559.972 57.5002L560.821 59.3107C564.392 57.6349 567.201 55.262 569.161 52.1713L567.472 51.1002L565.783 50.0291C564.276 52.4051 562.085 54.2988 559.122 55.6897L559.972 57.5002ZM567.472 51.1002L569.172 52.1529C571.13 48.9905 572.072 45.3137 572.072 41.2002H570.072H568.072C568.072 44.6866 567.28 47.6099 565.771 50.0475L567.472 51.1002ZM570.072 41.2002H572.072C572.072 37.088 571.13 33.4351 569.161 30.3291L567.472 31.4002L565.783 32.4713C567.28 34.832 568.072 37.7124 568.072 41.2002H570.072ZM567.472 31.4002L569.172 30.3475C567.21 27.1782 564.388 24.7909 560.791 23.1757L559.972 25.0002L559.153 26.8247C562.088 28.1428 564.266 30.0221 565.771 32.4529L567.472 31.4002ZM559.972 25.0002L560.836 23.1966C557.306 21.505 553.162 20.7002 548.472 20.7002V22.7002V24.7002C552.714 24.7002 556.238 25.4287 559.107 26.8038L559.972 25.0002ZM548.472 22.7002V20.7002C543.779 20.7002 539.61 21.5055 536.022 23.1897L536.872 25.0002L537.721 26.8107C540.667 25.4282 544.231 24.7002 548.472 24.7002V22.7002ZM536.872 25.0002L536.038 23.1821C532.506 24.801 529.726 27.1891 527.771 30.3475L529.472 31.4002L531.172 32.4529C532.684 30.0113 534.837 28.1327 537.705 26.8183L536.872 25.0002ZM529.472 31.4002L527.783 30.3291C525.813 33.4351 524.872 37.088 524.872 41.2002H526.872H528.872C528.872 37.7124 529.664 34.832 531.161 32.4713L529.472 31.4002ZM526.872 41.2002H524.872C524.872 45.3137 525.813 48.9905 527.771 52.1529L529.472 51.1002L531.172 50.0475C529.663 47.6099 528.872 44.6866 528.872 41.2002H526.872ZM529.472 51.1002L527.783 52.1713C529.736 55.2515 532.503 57.6246 536.007 59.3038L536.872 57.5002L537.736 55.6966C534.84 54.3091 532.674 52.4156 531.161 50.0291L529.472 51.1002ZM536.872 57.5002L536.053 59.3247C539.632 60.9319 543.79 61.7002 548.472 61.7002V59.7002V57.7002C544.22 57.7002 540.645 57.0018 537.691 55.6757L536.872 57.5002ZM625.744 3.70019H627.744V1.70019H625.744V3.70019ZM625.744 68.4002L624.337 69.8212L627.744 73.1961V68.4002H625.744ZM615.244 58.0002V56.0002H610.383L613.837 59.4212L615.244 58.0002ZM671.144 58.0002H673.144V56.0002H671.144V58.0002ZM671.144 78.7002V80.7002H673.144V78.7002H671.144ZM602.444 78.7002H600.444V80.7002H602.444V78.7002ZM602.444 3.70019V1.70019H600.444V3.70019H602.444ZM625.744 3.70019H623.744V68.4002H625.744H627.744V3.70019H625.744ZM625.744 68.4002L627.152 66.9792L616.652 56.5792L615.244 58.0002L613.837 59.4212L624.337 69.8212L625.744 68.4002ZM615.244 58.0002V60.0002H671.144V58.0002V56.0002H615.244V58.0002ZM671.144 58.0002H669.144V78.7002H671.144H673.144V58.0002H671.144ZM671.144 78.7002V76.7002H602.444V78.7002V80.7002H671.144V78.7002ZM602.444 78.7002H604.444V3.70019H602.444H600.444V78.7002H602.444ZM602.444 3.70019V5.70019H625.744V3.70019V1.70019H602.444V3.70019ZM701.99 3.70019H703.99V1.70019H701.99V3.70019ZM701.99 68.4002L700.583 69.8212L703.99 73.1961V68.4002H701.99ZM691.49 58.0002V56.0002H686.629L690.083 59.4212L691.49 58.0002ZM747.39 58.0002H749.39V56.0002H747.39V58.0002ZM747.39 78.7002V80.7002H749.39V78.7002H747.39ZM678.69 78.7002H676.69V80.7002H678.69V78.7002ZM678.69 3.70019V1.70019H676.69V3.70019H678.69ZM701.99 3.70019H699.99V68.4002H701.99H703.99V3.70019H701.99ZM701.99 68.4002L703.398 66.9792L692.898 56.5792L691.49 58.0002L690.083 59.4212L700.583 69.8212L701.99 68.4002ZM691.49 58.0002V60.0002H747.39V58.0002V56.0002H691.49V58.0002ZM747.39 58.0002H745.39V78.7002H747.39H749.39V58.0002H747.39ZM747.39 78.7002V76.7002H678.69V78.7002V80.7002H747.39V78.7002ZM678.69 78.7002H680.69V3.70019H678.69H676.69V78.7002H678.69ZM678.69 3.70019V5.70019H701.99V3.70019V1.70019H678.69V3.70019ZM820.437 33.0002H822.437V31.0002H820.437V33.0002ZM820.437 49.4002V51.4002H822.437V49.4002H820.437ZM764.737 49.4002H762.737V51.4002H764.737V49.4002ZM764.737 33.0002V31.0002H762.737V33.0002H764.737ZM780.637 41.2002L782.611 41.5202L782.663 41.2002L782.611 40.8802L780.637 41.2002ZM775.937 70.2002L774.451 71.5389L777.243 74.6385L777.911 70.5202L775.937 70.2002ZM766.837 60.1002V58.1002H762.342L765.351 61.4389L766.837 60.1002ZM823.937 60.1002H825.937V58.1002H823.937V60.1002ZM823.937 78.7002V80.7002H825.937V78.7002H823.937ZM752.837 78.7002L750.858 78.4048L750.516 80.7002H752.837V78.7002ZM758.437 41.2002L760.415 41.4956L760.459 41.2002L760.415 40.9048L758.437 41.2002ZM752.837 3.70019V1.70019H750.516L750.858 3.99558L752.837 3.70019ZM823.437 3.70019H825.437V1.70019H823.437V3.70019ZM823.437 22.3002V24.3002H825.437V22.3002H823.437ZM766.837 22.3002L765.351 20.9615L762.342 24.3002H766.837V22.3002ZM775.937 12.2002L777.911 11.8802L777.243 7.76192L774.451 10.8615L775.937 12.2002ZM820.437 33.0002H818.437V49.4002H820.437H822.437V33.0002H820.437ZM820.437 49.4002V47.4002H764.737V49.4002V51.4002H820.437V49.4002ZM764.737 49.4002H766.737V33.0002H764.737H762.737V49.4002H764.737ZM764.737 33.0002V35.0002H820.437V33.0002V31.0002H764.737V33.0002ZM780.637 41.2002L778.662 40.8802L773.962 69.8802L775.937 70.2002L777.911 70.5202L782.611 41.5202L780.637 41.2002ZM775.937 70.2002L777.422 68.8615L768.322 58.7615L766.837 60.1002L765.351 61.4389L774.451 71.5389L775.937 70.2002ZM766.837 60.1002V62.1002H823.937V60.1002V58.1002H766.837V60.1002ZM823.937 60.1002H821.937V78.7002H823.937H825.937V60.1002H823.937ZM823.937 78.7002V76.7002H752.837V78.7002V80.7002H823.937V78.7002ZM752.837 78.7002L754.815 78.9956L760.415 41.4956L758.437 41.2002L756.458 40.9048L750.858 78.4048L752.837 78.7002ZM758.437 41.2002L760.415 40.9048L754.815 3.4048L752.837 3.70019L750.858 3.99558L756.458 41.4956L758.437 41.2002ZM752.837 3.70019V5.70019H823.437V3.70019V1.70019H752.837V3.70019ZM823.437 3.70019H821.437V22.3002H823.437H825.437V3.70019H823.437ZM823.437 22.3002V20.3002H766.837V22.3002V24.3002H823.437V22.3002ZM766.837 22.3002L768.322 23.6389L777.422 13.5389L775.937 12.2002L774.451 10.8615L765.351 20.9615L766.837 22.3002ZM775.937 12.2002L773.962 12.5202L778.662 41.5202L780.637 41.2002L782.611 40.8802L777.911 11.8802L775.937 12.2002ZM850.31 36.1002V34.1002H848.31V36.1002H850.31ZM883.31 34.1002L882.061 32.5385L882.045 32.5509L882.03 32.5637L883.31 34.1002ZM883.31 22.5002L882.03 24.0366L882.045 24.0494L882.061 24.0619L883.31 22.5002ZM847.01 20.5002L845.576 19.106L842.276 22.5002H847.01V20.5002ZM857.51 9.70019H859.51V4.77393L856.076 8.30603L857.51 9.70019ZM857.51 78.7002V80.7002H859.51V78.7002H857.51ZM834.21 78.7002H832.21V80.7002H834.21V78.7002ZM834.21 3.70019V1.70019H832.21V3.70019H834.21ZM895.31 6.80019L896.16 4.98993L896.16 4.98993L895.31 6.80019ZM905.61 15.4002L907.269 14.2838L905.61 15.4002ZM905.61 41.1002L907.269 42.2165L907.274 42.2096L907.279 42.2027L905.61 41.1002ZM895.31 49.7002L896.138 51.5209L896.149 51.5158L896.16 51.5105L895.31 49.7002ZM850.31 52.7002H848.31V54.7002H850.31V52.7002ZM860.31 43.6002V41.6002H856.43L858.681 44.7605L860.31 43.6002ZM886.21 43.6002L887.821 42.4157L887.222 41.6002H886.21V43.6002ZM912.01 78.7002V80.7002H915.962L913.621 77.5157L912.01 78.7002ZM885.31 78.7002L883.681 79.8605L884.279 80.7002H885.31V78.7002ZM850.31 36.1002V38.1002H876.51V36.1002V34.1002H850.31V36.1002ZM876.51 36.1002V38.1002C879.723 38.1002 882.509 37.3713 884.59 35.6366L883.31 34.1002L882.03 32.5637C880.911 33.4957 879.164 34.1002 876.51 34.1002V36.1002ZM883.31 34.1002L884.559 35.6619C886.791 33.8764 887.81 31.3145 887.81 28.3002H885.81H883.81C883.81 30.3526 883.162 31.6573 882.061 32.5385L883.31 34.1002ZM885.81 28.3002H887.81C887.81 25.2859 886.791 22.724 884.559 20.9385L883.31 22.5002L882.061 24.0619C883.162 24.9431 883.81 26.2478 883.81 28.3002H885.81ZM883.31 22.5002L884.59 20.9637C882.509 19.2291 879.723 18.5002 876.51 18.5002V20.5002V22.5002C879.164 22.5002 880.911 23.1047 882.03 24.0366L883.31 22.5002ZM876.51 20.5002V18.5002H847.01V20.5002V22.5002H876.51V20.5002ZM847.01 20.5002L848.444 21.8944L858.944 11.0943L857.51 9.70019L856.076 8.30603L845.576 19.106L847.01 20.5002ZM857.51 9.70019H855.51V78.7002H857.51H859.51V9.70019H857.51ZM857.51 78.7002V76.7002H834.21V78.7002V80.7002H857.51V78.7002ZM834.21 78.7002H836.21V3.70019H834.21H832.21V78.7002H834.21ZM834.21 3.70019V5.70019H880.01V3.70019V1.70019H834.21V3.70019ZM880.01 3.70019V5.70019C885.572 5.70019 890.372 6.69056 894.46 8.61045L895.31 6.80019L896.16 4.98993C891.448 2.77649 886.048 1.70019 880.01 1.70019V3.70019ZM895.31 6.80019L894.46 8.61045C898.566 10.5391 901.706 13.1796 903.951 16.5165L905.61 15.4002L907.269 14.2838C904.581 10.2874 900.854 7.19458 896.16 4.98993L895.31 6.80019ZM905.61 15.4002L903.951 16.5165C906.17 19.8155 907.31 23.7165 907.31 28.3002H909.31H911.31C911.31 23.0172 909.983 18.3182 907.269 14.2838L905.61 15.4002ZM909.31 28.3002H907.31C907.31 32.738 906.176 36.6155 903.941 39.9977L905.61 41.1002L907.279 42.2027C909.977 38.1182 911.31 33.4624 911.31 28.3002H909.31ZM905.61 41.1002L903.951 39.9838C901.706 43.3208 898.566 45.9613 894.46 47.8899L895.31 49.7002L896.16 51.5105C900.854 49.3058 904.581 46.213 907.269 42.2165L905.61 41.1002ZM895.31 49.7002L894.482 47.8795C890.389 49.7401 885.581 50.7002 880.01 50.7002V52.7002V54.7002C886.039 54.7002 891.431 53.6603 896.138 51.5209L895.31 49.7002ZM880.01 52.7002V50.7002H850.31V52.7002V54.7002H880.01V52.7002ZM850.31 52.7002H852.31V36.1002H850.31H848.31V52.7002H850.31ZM860.31 43.6002V45.6002H886.21V43.6002V41.6002H860.31V43.6002ZM886.21 43.6002L884.598 44.7847L910.398 79.8847L912.01 78.7002L913.621 77.5157L887.821 42.4157L886.21 43.6002ZM912.01 78.7002V76.7002H885.31V78.7002V80.7002H912.01V78.7002ZM885.31 78.7002L886.939 77.5399L861.939 42.4399L860.31 43.6002L858.681 44.7605L883.681 79.8605L885.31 78.7002Z" fill="white" fill-opacity="0.2" mask="url(#path-1-outside-1_460_462)"/>
</svg>
